<svg width="32" height="32" viewBox="0 0 32 32" fill="none" xmlns="http://www.w3.org/2000/svg">
<path d="M6.7555 24.0952L9.68701 24.0841C9.79932 24.0844 9.98245 24.0639 10.0822 24.1125L10.0961 24.12C10.2884 24.2201 10.2693 24.3421 10.2666 24.526L10.2652 26.4635H9.89276L6.37208 26.4596C6.35241 26.1422 6.36577 25.8186 6.36567 25.5002L6.36732 24.4033C6.37608 24.1653 6.52678 24.1002 6.7555 24.0952Z" fill="white" fill-opacity="0.5"/>
<path d="M6.48927 26.5705C6.63071 26.549 6.80843 26.5694 6.95342 26.5695L9.86852 26.571C10.1892 26.5711 10.7491 26.5042 11.0434 26.6259L11.065 26.6351C11.7958 26.9417 11.8826 27.5017 11.8257 28.218L10.2047 28.2254L4.87101 28.2158C4.78168 27.4462 4.8998 26.8919 5.7002 26.6115C5.92772 26.5319 6.25043 26.5696 6.48927 26.5705Z" fill="white" fill-opacity="0.5"/>
<path d="M8.76288 5.79883C8.84762 5.78947 9.04 5.77635 9.10252 5.84132C9.18905 5.93125 9.16112 6.75161 9.16503 6.93744L27.6286 6.94079C27.683 6.94304 27.7268 6.9484 27.7767 6.97107L27.7928 6.97863C27.8884 7.02072 27.9708 7.08328 28.0241 7.17547L28.0353 7.19804C28.0644 7.2554 28.0889 7.3114 28.092 7.37687C28.1202 7.9743 27.5946 7.927 27.2032 7.92715L23.8202 7.92165L23.8203 9.12838C23.8912 9.14279 23.9765 9.13423 24.0493 9.13428L26.0557 9.13508C26.6395 9.13538 27.1442 8.93519 27.148 9.62982L27.1485 18.9777C27.1362 19.2738 26.7269 19.2239 26.5259 19.2241L11.166 19.2232C10.9693 19.223 10.764 19.2342 10.5684 19.2169C10.0895 19.1746 10.2619 18.4627 10.2616 18.0723L10.2607 16.1619L10.2601 10.1837C10.2605 9.54183 10.07 9.13709 10.8466 9.13613L13.8516 9.13769L13.8656 7.92891L9.14981 7.9278L9.16362 23.9952L7.37123 23.9721L7.3505 7.92815L4.93261 7.92365C4.7794 7.92275 4.58402 7.94007 4.44112 7.87981C4.22302 7.78772 4.07305 7.49558 4.16744 7.26941L4.17589 7.24979C4.30247 6.93423 4.62137 6.93699 4.91632 6.93664L7.35336 6.94024C7.37188 6.56492 7.33914 6.19581 7.38068 5.82115C7.5475 5.78386 7.73683 5.79983 7.9077 5.79948L8.76288 5.79883ZM17.7459 7.92685L14.691 7.92735C14.5634 7.92735 14.4267 7.91789 14.3002 7.93186L14.2864 9.13413L19.9493 9.13448L23.3851 9.12888L23.3858 8.31819C23.3859 8.19421 23.3995 8.05128 23.3806 7.92986L18.2641 7.9266C18.0971 7.9266 17.9094 7.90798 17.7459 7.92685ZM18.2614 11.9035L18.2813 14.1822C18.2812 14.6282 18.3607 15.3582 18.1802 15.7645C18.7882 15.7943 19.275 15.7633 19.733 15.3385L19.7567 15.3151C20.7379 14.3034 20.4136 12.3265 19.0472 11.9598C18.7948 11.892 18.5163 11.9007 18.2614 11.9035ZM21.242 17.6248L12.4924 17.6257L12.4595 17.9054L16.786 17.9083L25.4804 17.9052L25.4774 17.6257L21.242 17.6248ZM16.4895 11.9078L16.2937 11.9479C15.8679 12.0398 15.6341 12.4719 15.5575 12.8644C15.5097 13.1091 15.7124 13.234 15.8486 12.7794C15.9678 12.3814 16.3003 12.1933 16.6961 12.2436L16.715 12.2458C16.9173 12.2708 17.1035 12.4314 17.185 12.6144L17.1939 12.6335C17.2671 12.7938 17.2685 12.9321 17.2066 13.0956L17.1784 13.1589C17.0772 13.3745 16.9266 13.5432 16.6961 13.6255L16.5739 13.6595C16.3925 13.7055 16.1354 13.6484 16.1564 13.9301C16.252 14.0315 16.549 13.9931 16.6883 14.0275L16.7087 14.0323C17.6816 14.2741 17.3191 15.9403 16.3218 15.6977C15.6847 15.5597 15.8654 14.8287 15.5256 14.9627L15.4438 15.0599C15.6353 16.0495 16.7936 16.3243 17.4116 15.5331L17.4275 15.513C17.819 15.0103 17.5876 14.0749 16.9857 13.8013L16.9291 13.7783C17.1411 13.663 17.339 13.4948 17.4553 13.2791L17.4693 13.2535C17.5256 13.1494 17.564 13.0366 17.5804 12.9194L17.5843 12.894C17.6702 12.2976 17.1726 11.9716 16.6459 11.9126L16.4895 11.9078Z" fill="white" fill-opacity="0.5"/>
<path d="M18.5156 12.1777C18.6351 12.1824 18.7612 12.1924 18.8882 12.2387L18.9098 12.2468C19.4558 12.448 19.864 12.9641 19.9804 13.5272L19.9857 13.5532C20.0979 14.095 19.9365 14.6896 19.5642 15.0947C19.4953 15.1627 19.4119 15.228 19.3293 15.2784L19.3097 15.2902C19.0212 15.4659 18.8325 15.4601 18.5341 15.5217L18.5156 12.1777Z" fill="white" fill-opacity="0.5"/>
</svg>
