<svg width="32" height="32" viewBox="0 0 32 32" fill="none" xmlns="http://www.w3.org/2000/svg">
<path d="M22.0879 10.1777L23.9177 10.1843C23.9114 10.5003 23.8549 10.8309 23.8052 11.1432L23.6222 12.531L23.5669 12.8447L22.4015 12.8323L22.0879 10.1777Z" fill="white" fill-opacity="0.5"/>
<path d="M8.13477 10.1905L9.96395 10.1836C9.9575 10.6005 9.89118 11.0199 9.83698 11.4326L9.67727 12.5465L9.61591 12.8347L8.49652 12.8359C8.42485 12.7737 8.15469 10.4544 8.13477 10.1905Z" fill="white" fill-opacity="0.5"/>
<path d="M4.5064 13.4039L26.9604 13.4057C27.641 13.4054 27.841 13.222 27.8402 14.0014L27.8371 14.5825C27.8345 14.7872 27.8788 15.0024 27.6452 15.0604L4.50525 15.0539C4.42197 15.0509 4.33736 15.0485 4.26719 14.9998C4.20204 14.9204 4.12977 13.6695 4.28027 13.5358L4.32644 13.4914C4.37676 13.4455 4.44328 13.426 4.5064 13.4039Z" fill="white" fill-opacity="0.5"/>
<path d="M7.9622 3.80382L23.8553 3.8051C23.9487 3.80481 24.0718 3.79077 24.1615 3.81492L24.1781 3.82002C24.5008 3.91735 24.3924 4.52775 24.3925 4.77535V6.90318C24.3921 7.17039 24.4605 7.42068 24.1452 7.51432C23.8288 7.54806 23.4856 7.52243 23.1665 7.52243L8.4735 7.52308C8.2669 7.52308 7.80059 7.60817 7.69674 7.34966C7.6572 7.25112 7.67051 4.04546 7.69724 3.99639C7.74644 3.906 7.87116 3.83861 7.9622 3.80382ZM19.1532 4.75657C18.8016 4.89952 18.881 5.01108 18.8809 5.35302L18.882 6.0598C18.8831 6.36205 18.8492 6.68146 19.2691 6.64267C19.3776 6.58987 19.4544 6.54433 19.5358 6.45384L19.5426 5.57743C19.5422 5.2335 19.6445 4.97744 19.3477 4.80058L19.3218 4.7849C19.2745 4.7621 19.2052 4.75759 19.1532 4.75657ZM12.7277 4.77368C12.3864 4.94113 12.4851 5.04246 12.4918 5.41783L12.4955 6.36295C12.4958 6.60078 12.6961 6.67405 12.9193 6.62125C13.2114 6.4621 13.1475 6.32672 13.1481 6.02892L13.1482 5.37063C13.1477 5.14776 13.1887 4.77099 12.8414 4.76386L12.7277 4.77368Z" fill="white" fill-opacity="0.5"/>
<path d="M5.20898 15.7182L26.7328 15.715C26.7661 15.7151 26.8306 15.7053 26.8525 15.7271L26.85 24.9286C26.8431 24.9798 26.7964 25.0129 26.7582 25.0421L26.6753 25.0995C26.4969 25.2048 25.8606 25.1384 25.6315 25.1387L23.6636 25.1383C23.3649 25.1382 22.5241 24.9948 22.6628 25.5468C22.7808 26.0165 23.5956 25.555 23.7275 26.1726L23.7324 26.1969C23.7432 26.2473 23.7435 26.281 23.733 26.3321L23.7285 26.3532C23.7211 26.3885 23.715 26.421 23.6962 26.4525L23.6802 26.4783C23.6302 26.5625 23.5664 26.6218 23.4818 26.67C23.3735 26.7154 23.247 26.7039 23.1345 26.7043L19.4707 26.7041C19.3148 26.7038 19.0873 26.7325 18.9417 26.683L18.8898 26.6639C18.6519 26.5661 18.555 26.2771 18.6751 26.0494C18.8258 25.7635 19.0781 25.8505 19.3258 25.7613C19.5903 25.6661 19.6767 25.1496 19.1025 25.1412L12.8427 25.1401C12.3397 25.1504 12.4458 25.7331 12.7227 25.7621C12.9744 25.7885 13.2852 25.8053 13.3939 26.0804L13.4025 26.103C13.4785 26.2952 13.4159 26.5356 13.23 26.6438L13.2045 26.6563C13.0518 26.7405 12.8853 26.7043 12.7167 26.7046L8.63368 26.7011C8.58523 26.6985 8.53894 26.6887 8.5003 26.6576L8.47783 26.6361C8.05802 26.2539 8.33254 25.8329 8.88317 25.7951C9.44587 25.7565 9.34573 25.1802 9.02571 25.1552C8.68098 25.1283 8.33083 25.1392 7.98505 25.139L5.79751 25.137C5.56343 25.1366 5.224 25.1466 5.20933 24.8361L5.20898 15.7182ZM8.71516 17.3175C8.40125 17.3764 8.36612 17.4668 8.35446 17.7511L8.34475 18.312C8.3427 18.6906 8.36787 18.9669 8.79709 18.9727L9.20774 18.9759C9.68726 18.9782 10.1746 18.9557 10.6526 18.985L10.6538 24.7259C10.6539 25.0345 10.6406 25.3362 10.6923 25.6411C10.8852 25.7829 11.1688 25.8304 11.3162 25.5947C11.3637 25.5188 11.3386 25.2826 11.3386 25.1895L11.3374 24.1206L11.336 18.971L12.5246 18.9725C13.5117 18.9723 13.3333 18.7231 13.3257 17.8815C13.3239 17.6798 13.3742 17.5493 13.1948 17.4134L13.1712 17.3953C13.0063 17.2695 12.7942 17.3185 12.5984 17.3188L8.71516 17.3175ZM19.0324 17.3215C18.9692 17.3384 18.9169 17.3552 18.8599 17.387L18.842 17.3966C18.6294 17.5123 18.6994 17.6458 18.7015 17.858L18.7052 18.3664C18.7055 18.4866 18.6741 18.6708 18.7479 18.7755L18.76 18.793C18.9306 19.0343 19.1734 18.9726 19.4348 18.9733L20.34 18.9748C20.4426 18.9751 20.5838 18.9558 20.6787 18.9844L20.6693 24.5044C20.6696 24.8217 20.6599 25.1441 20.681 25.4607C20.7116 25.9173 21.3156 25.856 21.3427 25.4446C21.3527 25.294 21.3467 25.1399 21.3469 24.9889L21.347 23.7648L21.3517 18.969L22.7544 18.9725C23.1394 18.9726 23.4254 19.0905 23.6619 18.7286L23.6726 18.7125C23.7114 18.648 23.705 18.5515 23.7047 18.4784L23.6983 17.9804C23.7038 17.2919 23.6668 17.3178 22.9183 17.3207L19.0324 17.3215Z" fill="white" fill-opacity="0.5"/>
<path d="M19.3167 17.9767L23.0975 17.9766L23.0828 18.3631L19.3164 18.3498L19.3167 17.9767Z" fill="white" fill-opacity="0.5"/>
<path d="M8.97817 17.9707L12.7165 17.9767L12.7148 18.35L8.98173 18.3467C8.96526 18.2246 8.97577 18.0941 8.97817 17.9707Z" fill="white" fill-opacity="0.5"/>
</svg>
