<svg width="32" height="32" viewBox="0 0 32 32" fill="none" xmlns="http://www.w3.org/2000/svg">
<path d="M10.9638 7.56955L20.043 7.5633C20.4034 7.56335 20.7764 7.5425 21.1347 7.5655C21.4564 7.5861 21.3765 7.99735 21.3767 8.21325L21.3833 12.6586C21.4032 12.6796 21.4145 12.6716 21.4414 12.6716L25.8199 12.6708C26.0353 12.672 26.2191 12.702 26.2266 12.984L26.2267 14.0748C26.2262 14.2883 26.3062 14.9681 25.9726 15.013C25.8915 15.0239 25.8013 15.0168 25.7188 15.0169L25.2176 15.0201C25.1929 15.0771 25.2033 15.1679 25.2029 15.231L25.203 26.2569C25.5316 26.3036 25.9038 26.2719 26.2375 26.2695C26.2552 26.3099 26.2443 26.3979 26.2444 26.4441L26.2545 26.8722L21.0673 26.8752L5.77113 26.8736L5.76953 26.2792C5.81943 26.2529 5.97778 26.2709 6.04018 26.2714L6.82148 26.2675C6.83823 26.159 6.82678 26.0372 6.82683 25.927L6.82433 15.028L6.29683 15.0236C6.11958 15.0205 5.95168 15.0209 5.86223 14.8351L5.85538 14.8198C5.78498 14.6693 5.81513 14.4637 5.81463 14.3022L5.81368 13.1574C5.81398 12.9751 5.79108 12.8513 5.95938 12.7371L5.97793 12.7248C6.13448 12.6177 6.40533 12.6712 6.58538 12.671L10.6564 12.6713L10.6484 8.43885C10.6483 8.1442 10.5337 7.6028 10.9638 7.56955ZM14.3649 21.5855L14.327 21.6011C14.2966 21.7541 14.3032 21.9145 14.3029 22.07L14.3001 25.9226C14.2999 26.0218 14.2794 26.1772 14.3064 26.2704L17.6829 26.2929L17.7116 23.2035C17.7115 22.9725 17.7749 21.7137 17.6637 21.5961C17.5336 21.5539 17.3616 21.5746 17.2236 21.5746L14.3649 21.5855ZM15.3027 9.58095L15.3052 10.9224L16.6559 10.9189L16.6494 10.0126C16.6492 9.8747 16.6654 9.7123 16.6421 9.57715L15.3027 9.58095ZM12.5206 12.5709L12.5266 13.8886L13.863 13.9153L13.8693 12.936C13.8695 12.8337 13.8931 12.6632 13.863 12.5683L12.5206 12.5709ZM12.5209 9.57825L12.5223 10.5085C12.5225 10.6329 12.5009 10.8034 12.531 10.9228L13.3441 10.9241C13.5126 10.9246 13.6926 10.912 13.8645 10.9487L13.8654 9.57835L12.5209 9.57825ZM22.0741 15.389L22.0706 16.6791C22.1178 16.7076 22.3214 16.6879 22.389 16.6877L23.457 16.6722L23.4508 15.4258C23.314 15.3677 23.0848 15.3912 22.9359 15.3908L22.0741 15.389ZM12.6411 15.5229L12.5346 15.535C12.5 15.665 12.5204 15.8377 12.5203 15.9737L12.5208 16.8261L13.3241 16.8285C13.4798 16.8299 13.6485 16.8503 13.8178 16.8544L13.8685 15.5168L12.6411 15.5229ZM15.5665 12.5698L15.3163 12.5756C15.2994 12.5939 15.3039 12.5829 15.304 12.6092L15.3051 13.8837L16.4267 13.8854L16.6443 13.8841L16.6547 12.5657L15.5665 12.5698ZM8.74133 15.3959C8.68583 15.4062 8.63268 15.4169 8.57608 15.4168C8.55068 15.5919 8.55743 15.7696 8.55693 15.9462L8.55568 16.6936L9.75238 16.7047L9.91893 16.7103C9.94888 16.6651 9.93003 15.5785 9.93028 15.4252L9.77423 15.4082C9.43873 15.3583 9.08038 15.4032 8.74133 15.3959ZM18.1109 9.5855L18.1101 10.9223L19.4529 10.9239L19.4459 9.5856L18.1109 9.5855ZM22.0757 20.9377L22.0743 22.2336L23.4579 22.2024L23.4669 21.5352C23.4725 21.3544 23.4974 21.1448 23.4623 20.9679L22.2331 20.9689C22.1829 20.9688 22.1261 20.962 22.0757 20.9377ZM15.3054 18.4509L15.3069 19.7444L16.6511 19.7497L16.6586 18.4532L15.3054 18.4509ZM18.1132 15.5216L18.1099 16.3392C18.1094 16.4984 18.1188 16.6636 18.0974 16.8214L19.4529 16.8218L19.4743 15.5219L18.1132 15.5216ZM12.5388 18.4526L12.5197 19.7562C12.9717 19.7499 13.409 19.748 13.8659 19.8016V18.8385C13.8658 18.7305 13.888 18.5584 13.8581 18.4579L12.5388 18.4526ZM18.1052 12.5782L18.1104 13.8845L19.4521 13.8825L19.4529 12.5723L18.1052 12.5782ZM15.3057 15.5181L15.3072 16.8225L16.6488 16.8205L16.6466 15.541C16.5077 15.5036 16.3336 15.5194 16.1882 15.5182L15.3057 15.5181ZM8.55728 20.9811L8.56253 22.2361L9.92883 22.2448L9.93223 21.3129C9.93248 21.2254 9.95398 21.0566 9.92648 20.9793L8.55728 20.9811ZM18.1109 18.4524L18.1101 19.7498L19.4528 19.7498C19.4527 19.594 19.4737 18.5009 19.4432 18.4534L18.1109 18.4524ZM22.0745 18.1747L22.0758 19.3901L23.4561 19.3822L23.461 18.1761L22.0745 18.1747ZM8.55683 18.2025L8.55388 19.4281L9.92598 19.4205L9.92803 18.21C9.47653 18.1481 9.01188 18.1932 8.55683 18.2025Z" fill="#F9F9F9" fill-opacity="0.5"/>
</svg>
