<svg width="32" height="32" viewBox="0 0 32 32" fill="none" xmlns="http://www.w3.org/2000/svg">
<path d="M14.9004 17.2582L16.3558 17.257C16.6237 17.2573 16.9276 17.2303 17.1903 17.2805C17.2145 17.3741 17.1892 17.521 17.1841 17.6194L17.1493 17.6427L15.8163 17.6539C15.5191 17.6536 15.1932 17.678 14.901 17.6289L14.9004 17.2582Z" fill="white" fill-opacity="0.5"/>
<path d="M15.2797 13.6922L16.6852 13.6875L16.6241 14.4913C16.5983 14.6946 16.5075 14.7658 16.3697 14.9016C15.8972 15.39 16.135 15.2694 15.711 14.9179C15.664 14.8789 15.5802 14.8723 15.5245 14.8354C15.2488 14.6525 15.2664 13.9867 15.2797 13.6922Z" fill="white" fill-opacity="0.5"/>
<path d="M15.9224 12.3299C16.3104 12.3123 16.7092 12.4256 16.9313 12.7771L16.9412 12.7935C16.9882 12.8699 17.0119 12.9259 17.0177 13.0166C17.0468 13.4724 16.9524 13.3553 16.6091 13.3346C16.4172 13.3231 16.2214 13.3306 16.0291 13.3326L14.9394 13.39L14.9181 13.2756C14.8575 12.7721 15.4898 12.3731 15.9224 12.3299Z" fill="white" fill-opacity="0.5"/>
<path d="M16.4736 15.3027L17.2011 15.5053C17.7934 15.6714 17.8249 15.6466 17.891 16.2112L17.9634 16.6727C18.0202 17.0213 18.1168 17.3502 18.1974 17.6922L17.7877 17.65C17.7408 17.6474 17.6985 17.6301 17.6514 17.6381L17.5307 17.6526C17.4782 17.6181 17.522 16.9622 17.4613 16.7701C17.3899 16.969 17.2267 16.9326 17.0473 16.9318L15.1293 16.9299C14.9393 16.9518 14.7656 16.9657 14.5953 16.8708L14.5939 17.6401C14.3687 17.6569 14.0925 17.6642 13.8691 17.6328C13.903 17.2776 13.9806 16.9305 14.0388 16.5788L14.1012 16.1506C14.1873 15.4674 14.3362 15.708 14.9384 15.5013C15.1263 15.4368 15.2932 15.3519 15.4898 15.3102C15.6865 15.4822 15.8406 15.9798 15.9691 16.0315C16.2011 15.9371 16.3392 15.5058 16.4736 15.3027Z" fill="white" fill-opacity="0.5"/>
<path d="M5.90234 16.9258L7.41609 16.934L7.41389 21.325C7.10964 21.262 6.22244 21.2694 5.93434 21.3028L5.90234 16.9258Z" fill="white" fill-opacity="0.5"/>
<path d="M24.582 16.916L26.1051 16.9209C26.1251 17.0553 26.1103 17.2136 26.1103 17.3507L26.1083 21.3172L24.5908 21.2957L24.582 16.916Z" fill="white" fill-opacity="0.5"/>
<path d="M23.3892 9.69L23.4293 9.68164C23.4487 9.70426 23.4625 9.72108 23.4734 9.74921L23.5009 9.81512C23.5805 9.94625 23.8862 10.0508 24.0376 10.0798L24.0863 10.0889C24.1288 10.1026 24.1505 10.1161 24.1968 10.1205L24.2294 10.1513C24.2111 10.3263 24.2195 10.505 24.2199 10.6808L24.2324 21.3072L23.5863 21.2888C23.5363 21.318 23.4042 21.2993 23.3432 21.2977L22.7331 21.2876L22.7109 10.0983C22.9886 9.93599 23.0939 9.91512 23.3892 9.69Z" fill="white" fill-opacity="0.5"/>
<path d="M8.63163 9.68945L8.68908 9.71288C8.98678 10.026 9.02533 9.90902 9.26943 10.0523L9.27798 21.2999L8.41097 21.2883C8.33327 21.3336 7.90412 21.2972 7.78067 21.2974L7.76562 10.1217C7.85658 10.13 7.97603 10.1212 8.06338 10.0953L8.08607 10.0882C8.33107 10.0131 8.47008 9.88069 8.63163 9.68945Z" fill="white" fill-opacity="0.5"/>
<path d="M11.6719 17.9395L20.3261 17.9419L20.3292 21.3081C20.233 21.2816 20.1426 21.2874 20.0539 21.2873L11.6784 21.2871L11.6719 17.9395Z" fill="white" fill-opacity="0.5"/>
<path d="M8.21111 21.6071L26.2733 21.6073C26.4681 21.6082 26.6753 21.5961 26.8676 21.6245L26.8805 23.0792L23.793 23.0736L5.13907 23.0716C5.13952 22.5916 5.10972 22.0882 5.17642 21.6135L8.21111 21.6071Z" fill="white" fill-opacity="0.5"/>
<path d="M4.26856 23.3887L27.7528 23.3979L27.7368 24.9409C27.6482 24.9559 27.5184 24.9362 27.4457 24.9345L5.10191 24.9301C4.82982 24.9305 4.5526 24.921 4.28116 24.9396C4.24783 24.8849 4.26747 24.6529 4.26743 24.5778L4.26856 23.3887Z" fill="white" fill-opacity="0.5"/>
<path d="M7.28183 6.13477L24.8013 6.13872C24.8635 6.23897 24.9052 6.35398 24.9614 6.45883C25.4033 7.28219 25.6323 7.47853 25.5218 8.41955C25.418 9.30426 25.1504 9.91811 24.1789 9.76461L24.1563 9.76071C23.9417 9.72522 23.8501 9.63013 23.7088 9.47588C23.7292 9.3982 23.7763 9.32558 23.804 9.24946C23.9233 8.92054 24.0659 8.13197 23.8574 7.80555C23.7744 7.81496 23.6157 7.80299 23.5809 7.89864L23.6034 7.99874C23.6745 8.40253 23.5349 8.92174 23.2961 9.25076C22.5404 10.2922 21.0558 9.81376 20.8841 8.61028C20.8148 8.12466 21.0938 7.6026 20.492 7.81716L20.502 8.12531C20.5132 8.65182 20.4613 9.00982 20.0755 9.41307L20.0262 9.45911C18.9648 10.4077 17.6783 9.46587 17.7418 8.10594C17.7529 7.86961 17.8052 7.72367 17.4843 7.78388C17.2902 7.82026 17.4067 8.36945 17.3648 8.59982C17.3235 8.82609 17.2083 9.07904 17.0765 9.26898L17.0613 9.29065C16.3397 10.3266 14.8232 9.77217 14.6363 8.56424C14.6021 8.34282 14.6827 7.9634 14.6172 7.78318L14.6026 7.77767C14.4824 7.74254 14.3625 7.78893 14.2565 7.84108C14.2257 8.02651 14.2774 8.2728 14.2541 8.47915L14.2459 8.55653C14.2022 8.9393 14.0172 9.28689 13.7149 9.52778L13.6922 9.54555C12.7879 10.2623 11.5787 9.52488 11.5173 8.45994C11.4948 8.0698 11.6887 7.62732 11.1457 7.84408C11.1012 8.10179 11.1778 8.37876 11.1335 8.64517C10.9118 9.97882 9.41813 10.2716 8.61483 9.04991C8.42898 8.76724 8.36623 8.30749 8.43923 7.97136L8.44463 7.94724C8.47333 7.78918 8.26993 7.8136 8.16048 7.8117L8.10873 7.92576C7.95623 8.32515 8.20843 9.13975 8.37143 9.4995L8.33248 9.5487C8.26938 9.62913 8.20453 9.67893 8.11148 9.72162C7.03978 10.2132 6.46478 9.02614 6.45128 8.11365C6.44288 7.54499 6.94388 6.63656 7.28183 6.13477Z" fill="white" fill-opacity="0.5"/>
</svg>
