<svg width="32" height="32" viewBox="0 0 32 32" fill="none" xmlns="http://www.w3.org/2000/svg">
<path d="M24.0446 18.9616C24.9759 18.9181 25.912 18.9524 26.8445 18.9509C26.934 18.9507 27.0544 18.9368 27.139 18.9618L27.1554 18.9672C27.5004 19.0767 27.6751 19.4133 27.6291 19.7626L27.6254 19.7885C27.5642 20.2533 27.1892 20.3613 26.7818 20.371C26.3908 20.3733 23.8534 20.433 23.6407 20.337L23.6242 20.3292C23.2053 20.1443 23.028 19.6005 23.333 19.2361C23.5268 19.0046 23.7674 18.9834 24.0446 18.9616Z" fill="#F9F9F9" fill-opacity="0.5"/>
<path d="M20.8529 16.8485C20.9615 16.8353 21.0873 16.8491 21.1861 16.8986L21.2191 16.9153C21.3642 16.9894 21.5032 17.1453 21.5457 17.3043C21.6461 17.6791 20.1664 21.5626 19.6362 21.7698C19.5642 21.7774 19.4921 21.788 19.4205 21.772L19.3978 21.7664C19.1436 21.7061 18.8796 21.453 18.9177 21.1732L18.9213 21.1492C18.9503 20.9328 19.0808 20.7054 19.1601 20.4997C19.4721 19.6912 19.8034 18.8905 20.0561 18.0607C20.1963 17.6003 20.2711 16.9332 20.8529 16.8485Z" fill="#F9F9F9" fill-opacity="0.5"/>
<path d="M5.22021 18.9615C6.69226 18.8775 7.73566 18.9748 9.17271 19.2031C9.69246 19.2857 10.1892 19.4975 10.0833 20.1163L10.079 20.1406C10.0074 20.5664 9.51796 20.7038 9.15011 20.6534C8.50381 20.5426 7.87566 20.3999 7.21666 20.375C6.65921 20.3539 6.09401 20.3703 5.53596 20.3733C5.30501 20.3745 5.03001 20.4157 4.8055 20.3593C4.16196 20.1974 4.13351 19.3229 4.68203 19.0305L4.70422 19.0192C4.83546 18.9511 5.06966 18.969 5.22021 18.9615Z" fill="#F9F9F9" fill-opacity="0.5"/>
<path d="M15.1955 13.9257C15.4538 13.8953 15.731 13.9486 15.8708 14.1964L15.8804 14.2141C16.115 14.6271 15.9328 15.1502 15.8404 15.5789C15.3861 17.6869 13.9156 20.521 11.615 20.8624C11.4226 20.8909 11.2284 20.8902 11.0346 20.8912C10.5401 20.8625 10.0498 20.4495 10.2927 19.9262C10.4836 19.5149 10.8588 19.5431 11.2417 19.5084C13.1364 19.3364 14.1482 16.5024 14.5406 14.9891C14.6588 14.5329 14.6702 14.0952 15.1955 13.9257Z" fill="#F9F9F9" fill-opacity="0.5"/>
<path d="M23.508 20.8206C24.5481 20.8201 25.5883 20.8196 26.6284 20.8206C26.8054 20.8207 27.0419 20.7933 27.2085 20.8533C27.5482 20.9756 27.7772 21.3407 27.6493 21.6986L27.6373 21.736C27.5844 21.9407 27.4163 22.1369 27.2131 22.2L27.188 22.2076C27.0278 22.2602 26.8298 22.241 26.6621 22.2413C25.7006 22.243 24.7388 22.2478 23.7773 22.2383C22.9578 23.6204 21.9945 24.9557 20.8068 26.0457C20.4815 26.3449 19.2796 27.3919 18.8258 27.4279C18.2606 27.4727 17.834 26.7631 18.2213 26.3269C18.3263 26.2086 18.4671 26.1149 18.5922 26.0192C20.3349 24.6861 21.3673 23.4644 22.534 21.5807C22.8044 21.1442 22.9399 20.8257 23.508 20.8206Z" fill="#F9F9F9" fill-opacity="0.5"/>
<path d="M16.8873 10.6744C17.7256 10.5917 17.7147 11.3269 17.7842 11.9132C17.9368 13.1995 18.0998 14.5796 17.9003 15.8664C17.8067 16.4707 17.7146 16.9188 17.5532 17.498C16.7076 20.5328 14.3763 24.0283 10.7543 23.1595C9.79487 22.9293 8.89502 22.5189 7.92212 22.3266C7.16472 22.1769 5.91397 22.2339 5.10522 22.2447C4.02896 22.2057 4.0968 21.064 4.70721 20.8715L4.73374 20.8635C4.91267 20.808 5.10897 20.8206 5.29467 20.8201C6.28587 20.8172 7.32572 20.7429 8.29627 20.9523C9.33642 21.1767 10.4197 21.6945 11.4096 21.8463C12.9162 22.0773 14.1258 21.0976 14.9312 19.9153C16.5242 17.5768 16.7514 15.1175 16.4214 12.4211C16.3834 12.1102 16.2258 11.3793 16.3595 11.0941L16.4079 10.9997C16.5173 10.8254 16.6914 10.7213 16.8873 10.6744Z" fill="#F9F9F9" fill-opacity="0.5"/>
<path d="M22.6694 5.05153C23.4022 4.99118 24.3377 5.04693 25.0876 5.04628C26.039 5.04553 26.7581 5.17493 27.3563 6.04688C27.7408 6.60753 27.7292 7.19584 27.7292 7.83939C27.7293 11.0868 27.7332 14.3343 27.7285 17.5817C27.7282 17.7578 27.7421 17.9481 27.7076 18.1212L27.7036 18.1401C27.6798 18.2592 27.6134 18.3561 27.5188 18.4319L27.5024 18.4448C27.2697 18.631 26.9309 18.5774 26.6482 18.5788C25.8941 18.573 25.14 18.5792 24.3859 18.5766C24.2964 18.5763 24.2007 18.5825 24.1126 18.5675L24.0935 18.5639C23.7476 18.5024 23.6446 18.0323 23.6837 17.7404L23.687 17.7182C23.7245 17.4493 23.9256 17.2089 24.1753 17.1099C24.1448 15.3885 24.2089 13.6799 24.1414 11.9451C24.0609 9.87563 23.887 8.44319 22.5833 6.67884C22.3671 6.38619 21.9736 6.02598 22.0921 5.61978C22.1773 5.32758 22.3545 5.11133 22.6694 5.05153Z" fill="#F9F9F9" fill-opacity="0.5"/>
<path d="M16.2666 7.7873C17.4271 7.60345 18.9005 8.52405 19.5273 9.44935C20.1854 10.4211 20.2347 11.6094 20.3282 12.7418C20.4061 13.6864 20.4774 15.032 20.2886 15.967L19.8034 18.2051C19.6913 18.6285 19.5269 19.0475 19.3794 19.46C19.0016 20.5162 18.5805 21.5083 17.9503 22.4453C16.562 24.5094 14.1756 25.8347 11.6561 25.5497C10.9913 25.4745 10.3289 25.2602 9.70632 25.0229C9.23222 24.8422 8.62812 24.6239 8.72712 23.9933L8.73127 23.9684C8.79752 23.5585 9.27352 23.3241 9.64762 23.4737L10.3483 23.7623C12.8261 24.7237 15.2275 23.897 16.7516 21.6836C17.216 21.0092 17.5743 20.2196 17.8667 19.4567C18.262 18.4108 18.5945 17.3481 18.789 16.2456C19.0353 14.8497 19.0502 12.167 18.65 10.8321C17.9783 8.59225 14.5082 8.66295 14.2092 11.1886C14.1618 11.5884 14.2283 12.0065 14.1591 12.4012L14.1314 12.6519C13.812 15.2376 12.5547 18.7334 9.46352 18.7647C9.10657 18.7683 8.74552 18.7875 8.50277 18.4671L8.48902 18.4485C8.24907 18.1306 8.45732 17.5291 8.84267 17.4198L8.86467 17.4137C9.13512 17.3266 9.52437 17.4201 9.82842 17.3548C11.7843 16.9346 12.6773 13.7993 12.7579 11.9875C12.7762 11.5762 12.7628 11.1485 12.8344 10.7421C13.126 9.08535 14.619 7.8751 16.2666 7.7873Z" fill="#F9F9F9" fill-opacity="0.5"/>
<path d="M6.27863 5.05628C7.22958 4.99185 8.34633 5.04808 9.30933 5.04878C9.54948 5.04893 9.79283 5.04123 10.0319 5.06308C10.4492 5.10128 10.8038 5.53583 10.6497 5.95553L10.6413 5.97733C10.5131 6.31588 10.2252 6.59083 10.0268 6.89198C9.17243 8.18914 8.70503 9.71838 8.67493 11.2711C8.65348 12.375 8.82468 13.2998 7.76628 14.0007C7.71813 14.0326 7.67153 14.0528 7.61748 14.0736L7.57728 17.1136C7.91078 17.1861 8.05803 17.3364 8.17123 17.6658C8.18038 17.8129 8.20778 17.9782 8.16608 18.1231L8.12333 18.243C8.05138 18.3945 7.88913 18.5044 7.73093 18.5466L7.70378 18.5526C7.45458 18.6132 7.16973 18.581 6.91473 18.5796C6.32568 18.5763 5.73658 18.5802 5.14753 18.5782C4.99904 18.5777 4.83975 18.5886 4.69338 18.567L4.67255 18.5636C4.5005 18.5383 4.32564 18.3829 4.24789 18.2327L4.23744 18.2117C4.13922 18.0189 4.19604 17.6891 4.19597 17.4764C4.1948 14.2221 4.19798 10.9678 4.19428 7.71343C4.19403 7.49219 4.18258 7.26138 4.20696 7.04133C4.33193 5.91318 5.20128 5.18413 6.27863 5.05628Z" fill="#F9F9F9" fill-opacity="0.5"/>
<path d="M16.2358 5.03985C16.7553 4.99588 17.3351 5.0969 17.8435 5.20215C20.3746 5.72605 22.3426 8.0017 22.6747 10.5359C22.7346 10.9928 22.7457 11.4532 22.7662 11.9129C22.7946 12.5508 22.9217 14.1089 22.7951 14.705C22.7602 14.8694 23.1345 14.5842 23.4299 15.1032L23.4411 15.1236C23.561 15.3375 23.5277 15.6653 23.4757 15.8996L22.9282 18.4557C22.8511 18.7434 22.7419 19.0315 22.6406 19.3119C21.1124 23.5444 18.3539 27.3493 13.4131 27.3897C13.2031 27.3915 12.979 27.4135 12.7845 27.319L12.702 27.2763C12.3842 27.0846 12.265 26.6109 12.4724 26.2973L12.4837 26.2807C12.749 25.8843 13.2575 26.0116 13.6586 25.975C16.0424 25.7577 17.6322 24.8557 19.0997 23.0452C20.0895 21.8241 20.6129 20.5967 21.1884 19.1452C21.5602 18.1611 21.8027 17.1736 21.9881 16.1418C22.029 15.9143 22.0536 15.6742 22.1244 15.4541C21.3972 15.4704 21.391 14.8219 21.3904 14.3158C21.3892 13.1829 21.4175 11.6429 21.2342 10.5229C21.0245 9.2421 20.2985 8.1125 19.2594 7.3506C16.954 5.66005 13.5862 6.4728 12.1631 8.88305C11.7131 9.6452 11.5231 10.5112 11.5113 11.3869C11.4863 13.2534 11.015 16.2922 8.80158 16.6124C7.77538 16.7609 7.63508 15.4779 8.37128 15.2737C8.64293 15.1983 8.85293 15.1976 9.06638 14.9889C10.0203 14.056 10.0325 12.412 10.0789 11.1635C10.2041 7.8018 12.9201 5.15825 16.2358 5.03985Z" fill="#F9F9F9" fill-opacity="0.5"/>
</svg>
