<svg width="32" height="32" viewBox="0 0 32 32" fill="none" xmlns="http://www.w3.org/2000/svg">
<path d="M15.9823 3.75987C16.2767 3.75475 16.5012 3.93432 16.7503 4.0688L27.8363 10.2218C27.9353 10.2805 28.1012 10.3831 28.1442 10.4933L28.1501 10.5089C28.2087 10.6233 28.1842 10.7576 28.1845 10.8828L28.1861 12.5276C28.1861 12.6899 28.2444 13.0216 28.1381 13.1548L28.1259 13.1696C27.8304 13.5357 27.2605 13.0552 26.9364 12.8706L25.4476 12.0018C25.3734 11.9585 25.2581 11.9387 25.2018 11.8755L25.1811 24.4139C25.2322 24.4419 26.0617 24.4202 26.1867 24.4201C26.2034 24.4817 26.1946 24.5582 26.1947 24.6221L26.1974 26.6477L16.0706 26.6432C15.1176 26.6432 5.88874 26.6656 5.83059 26.6295L5.82544 24.4182L6.47604 24.4195C6.59834 24.42 6.72384 24.4139 6.84524 24.4301L6.85679 11.8576C6.72119 11.9021 6.60354 12.0043 6.47934 12.0727L4.56275 13.1618C4.36007 13.2839 3.99139 13.4709 3.87172 13.11L3.86645 13.0931C3.75898 12.789 3.82915 12.0386 3.82909 11.687L3.82933 11.0405C3.82947 10.9026 3.81664 10.7471 3.85286 10.6136L3.86 10.5889C3.91994 10.3664 4.14226 10.2842 4.32685 10.1749L15.6892 3.84882C15.7811 3.80325 15.8806 3.77201 15.9823 3.75987ZM9.16404 11.457L9.12804 11.4583C9.11199 11.5704 9.12044 11.6906 9.12049 11.8038L9.11639 22.1469L22.9181 22.1544L22.9183 11.7127C22.9179 11.6312 22.9277 11.5374 22.9056 11.4592L9.16404 11.457ZM14.1413 8.15187L13.4366 8.16053C13.3526 8.16813 13.2389 8.24261 13.1656 8.28289L12.2976 8.81592C12.1852 8.88508 11.764 9.17221 11.6765 9.20354L17.8503 9.19869L20.3078 9.18993C20.1904 9.13117 20.0688 9.01856 19.9534 8.94649L18.9425 8.3418C18.622 8.15462 18.7056 8.15712 18.3083 8.15552L14.1413 8.15187Z" fill="white" fill-opacity="0.5"/>
<path d="M11.0947 16.3526L20.4682 16.3442C20.6272 16.3442 20.8436 16.3157 20.9939 16.3645L21.0151 16.3719C21.5894 16.5624 21.5176 16.9804 21.5173 17.4577L21.5089 21.6692L20.7193 21.6652C20.6275 21.6659 20.3966 21.6502 20.3219 21.6876L20.2992 21.676C20.2182 21.2936 20.295 20.8856 20.2416 20.4985L19.7212 20.4664C19.6836 20.4633 19.7019 20.4622 19.6642 20.4711L19.6656 21.6609L12.3835 21.6661C12.3608 21.5529 12.3754 21.4091 12.3749 21.2932L12.3729 20.4738L11.9858 20.4716C11.9294 20.4714 11.8573 20.4622 11.8045 20.4792L11.7988 21.3099C11.7985 21.4181 11.8173 21.5733 11.7869 21.6756L10.4959 21.6602L10.4896 17.5623C10.4896 17.1119 10.4172 16.5852 10.9526 16.3937L11.0947 16.3526Z" fill="white" fill-opacity="0.5"/>
</svg>
