<svg width="32" height="32" viewBox="0 0 32 32" fill="none" xmlns="http://www.w3.org/2000/svg">
<path d="M6.74912 20.457L7.47557 20.4693L7.45877 20.8249L6.89257 20.8236L6.10827 20.8172L6.10742 20.4781C6.15072 20.4568 6.22647 20.4658 6.27637 20.4643L6.74912 20.457Z" fill="white" fill-opacity="0.5"/>
<path d="M24.4863 20.4512L25.8731 20.4575C25.9078 20.5479 25.8867 20.7214 25.8807 20.8216L25.0331 20.823C24.8552 20.8219 24.6702 20.8296 24.4946 20.7986L24.4863 20.4512Z" fill="white" fill-opacity="0.5"/>
<path d="M8.50735 20.9735C8.9837 20.9096 9.4905 20.9429 9.9699 20.9437L10.4804 20.9449C10.6415 20.9455 10.8938 20.927 11.0449 20.9897L11.0498 20.9897C11.1268 20.9812 11.2053 20.9915 11.2841 20.9941L20.5906 21.0001C21.1679 20.9991 21.7119 20.9449 22.2704 20.9434L22.8878 20.9442C23.1035 20.9451 23.4373 20.8715 23.6166 21.0122L23.6402 21.0311C23.83 21.1796 24.2623 21.5424 24.3728 21.7623L24.3825 21.7848C24.6315 22.3149 24.1063 22.2602 23.8052 22.2611L8.33535 22.2609C8.15205 22.2607 7.9493 22.3144 7.79655 22.1904C7.6886 22.1028 7.51325 22.0431 7.57245 21.8736C7.6402 21.6797 8.32055 21.0598 8.50735 20.9735Z" fill="white" fill-opacity="0.5"/>
<path d="M7.98364 22.4434L24.1284 22.4835L24.1277 23.5094C24.1276 23.5527 24.1372 23.7593 24.1154 23.7892C24.0927 23.8203 23.4182 23.8559 23.3269 23.8622C23.2894 23.8647 23.3131 23.9775 23.3132 24.0099L23.3133 24.5954C23.3124 24.9167 23.2408 24.9525 22.9145 24.9548C22.6823 24.9556 22.3655 24.9957 22.1523 24.9099C22.1005 24.819 22.1044 24.6959 22.0984 24.5938L22.0818 23.8817L9.95784 23.8725L9.95839 24.4752C9.95754 24.7565 10.0402 24.9432 9.73499 24.9542L9.23584 24.9581C8.80004 24.9583 8.73434 24.9507 8.73384 24.4593L8.73529 23.8754C8.49829 23.8586 8.12914 23.9051 7.93659 23.7457C7.89909 23.5208 7.89874 22.6834 7.93554 22.4557L7.98364 22.4434Z" fill="white" fill-opacity="0.5"/>
<path d="M24.0266 12.5805C24.5582 12.5488 25.1053 12.5738 25.639 12.574L26.2777 12.5737C26.7192 12.5733 26.835 12.6097 26.8899 13.0471L27.3016 15.5209C27.1937 15.8738 26.9482 15.8739 26.6188 15.8748L26.1222 15.875C26.1034 15.9538 26.1111 16.0426 26.1064 16.1237L26.0736 16.6006C26.0425 17.0875 25.9798 17.8626 25.8664 18.3382L25.8603 18.3624C25.953 18.3848 26.0868 18.3672 26.1855 18.3667L26.9917 18.3636C27.5124 18.369 27.3898 18.8314 27.3901 19.1952L27.3889 23.3518C27.3751 23.6595 27.0396 23.6378 26.8192 23.6365L24.4263 23.6297L24.4316 22.6894C24.4673 22.6825 24.5035 22.6948 24.5389 22.7021L26.5544 22.7294L26.5528 19.5713L23.6239 19.563C23.5715 19.7969 23.6234 20.1812 23.5723 20.4735C22.9499 19.9691 22.8781 20.2443 22.8745 19.2781L22.8711 18.7893C22.8751 18.2865 23.1648 18.3606 23.5729 18.3617L24.6227 18.3684L24.4154 15.8751L23.9603 15.8714C23.1212 15.8668 23.3179 15.4339 23.4216 14.8596L23.7225 13.1253C23.7594 12.8711 23.7664 12.6981 24.0266 12.5805Z" fill="white" fill-opacity="0.5"/>
<path d="M5.46657 12.581L7.75687 12.5742C8.31392 12.5758 8.23362 12.7527 8.32767 13.2735L8.62642 15.0523C8.81292 15.969 8.46457 15.8744 7.64417 15.8754C7.62357 15.9693 7.63397 16.0793 7.63192 16.1759L7.61012 16.7791C7.57437 17.3075 7.49377 17.8381 7.40922 18.3607L8.48797 18.3631C9.24652 18.3633 9.14132 18.4754 9.14082 19.1153C9.14007 20.0498 9.29102 20.0269 8.42547 20.4967C8.38757 20.1904 8.39762 19.8797 8.39552 19.5713L5.49702 19.5673C5.47577 19.5974 5.48632 19.6624 5.48632 19.6997L5.48722 22.2423L5.48537 22.7237C5.62117 22.7541 5.82057 22.7298 5.96427 22.7298L7.15512 22.7217C7.28667 22.7187 7.49257 22.7369 7.61062 22.6828L7.62437 23.3206C7.62442 23.3786 7.64227 23.6059 7.61332 23.6362L5.08522 23.6347C4.57302 23.6304 4.63968 23.368 4.63945 22.9157L4.63799 18.752C4.63758 18.3346 5.00577 18.3618 5.31337 18.3629L6.18342 18.3664L5.93137 15.8749L5.32542 15.8753C4.72916 15.8733 4.69406 15.6979 4.79236 15.2376L5.12037 13.1678C5.15712 12.8791 5.15712 12.6872 5.46657 12.581Z" fill="white" fill-opacity="0.5"/>
<path d="M8.53501 20.9239C8.72981 20.6334 9.04176 20.3474 9.33066 20.1518C9.69726 19.9036 9.70721 19.9424 9.94691 19.5607C10.6546 18.4337 11.1982 18.6706 12.3427 18.6717L20.8313 18.6387C22.2168 18.6355 21.8099 18.9264 22.4578 19.8039C22.6922 20.1213 23.1883 20.5682 23.4898 20.9053L23.4717 20.9028C23.0217 20.8474 22.7013 20.9283 22.2852 20.941L11.4078 20.9448C11.3197 20.9435 11.1196 20.9221 11.0503 20.9606L11.0454 20.9914C10.8943 20.9288 10.642 20.9472 10.4809 20.9466L9.97036 20.9454C9.49096 20.9446 8.98416 20.9113 8.50781 20.9673L8.53501 20.9239Z" fill="white" fill-opacity="0.5"/>
<path d="M8.53501 20.9231C8.73641 20.8655 8.99276 20.8936 9.20171 20.8937L10.3361 20.8964C10.4503 20.901 10.5653 20.9292 10.6807 20.9355L11.4078 20.9439C11.3197 20.9427 11.1196 20.9213 11.0503 20.9599L11.0454 20.9907C10.8943 20.928 10.642 20.9465 10.4809 20.9459L9.97036 20.9447C9.49096 20.9439 8.98416 20.9106 8.50781 20.9665L8.53501 20.9231Z" fill="white" fill-opacity="0.5"/>
<path d="M15.6139 13.9617C16.8612 13.9069 17.8967 14.1931 18.9952 14.8015C19.648 15.163 19.9183 15.4308 20.6871 15.4906C20.8674 15.5046 21.4573 15.4598 21.5746 15.546L21.5932 15.5605C21.6937 15.6338 21.7736 15.711 21.7941 15.8409C21.8168 15.9842 21.8086 18.3902 21.7993 18.414C21.7706 18.4877 21.5039 18.2936 21.3767 18.3422C21.3462 18.3538 21.3609 18.3536 21.331 18.3529L19.8264 18.3619L19.8195 17.5703C19.7948 17.3251 19.27 17.394 19.1022 17.3937L17.2617 17.3936C17.0082 17.3947 16.7416 17.3843 16.4917 17.4307C16.3857 17.5866 16.4351 18.1648 16.435 18.3539L16.4112 18.3592L15.5418 18.3623L15.5304 17.8009C15.5157 17.4422 15.5576 17.4213 15.184 17.3974C14.7606 17.3703 14.3213 17.3928 13.8964 17.3928C13.4115 17.3928 12.9148 17.3719 12.4311 17.4007C12.0648 17.4225 12.1141 17.4538 12.1085 17.8202L12.104 18.3253C11.4952 18.4424 10.8294 18.2435 10.2485 18.5262L10.2356 16.0855C10.2356 16.0079 10.2227 15.8951 10.2489 15.8222L10.261 15.7969C10.4154 15.4656 10.6626 15.4971 10.9759 15.4942C11.8951 15.4856 12.0071 15.2776 12.7437 14.8814C13.6632 14.3868 14.5741 14.0453 15.6139 13.9617Z" fill="white" fill-opacity="0.5"/>
<path d="M12.0199 6.11258L20.0285 6.10938C20.0812 6.11162 20.1069 6.13323 20.1415 6.17278L20.1555 6.18903C20.1842 6.22133 20.2321 6.26353 20.2419 6.30683L20.2442 6.33763C20.2756 6.72348 20.2566 7.12448 20.2568 7.51198L20.2573 10.6146C20.2598 10.961 20.3547 11.228 19.9963 11.4109L19.967 11.4205C19.8704 11.4323 19.7613 11.4242 19.6635 11.4243L12.1367 11.4234C12.0507 11.4195 11.9765 11.3965 11.908 11.3435L11.8903 11.3293C11.8524 11.2995 11.8218 11.2786 11.8094 11.229L11.805 11.2105C11.7412 10.9831 11.7788 10.7246 11.7769 10.4903L11.7707 6.61252C11.7708 6.37197 11.7647 6.22113 12.0199 6.11258Z" fill="white" fill-opacity="0.5"/>
</svg>
