<svg width="32" height="32" viewBox="0 0 32 32" fill="none" xmlns="http://www.w3.org/2000/svg">
<path d="M6.81175 4.88343C13.4658 4.94877 20.1358 4.85349 26.7937 4.88581C26.8781 4.88622 26.9641 4.88128 27.0437 4.9138L27.0627 4.92217C27.5371 5.11587 27.3974 6.02667 27.3865 6.48472L25.1799 6.48197L4.6191 6.50317L4.60469 6.03732C4.60002 5.75287 4.5254 5.25147 4.73334 5.04092C4.94783 4.82372 5.23215 4.88858 5.50845 4.887C5.9429 4.8845 6.3773 4.88413 6.81175 4.88343ZM7.4249 5.45377C7.3269 5.50627 7.2415 5.56742 7.208 5.67982L7.1823 5.80262L7.26935 5.98252C7.3557 6.01537 7.41845 6.03817 7.5117 6.03697L7.6576 5.97827L7.71275 5.85737C7.73775 5.80087 7.74675 5.69817 7.7233 5.64027L7.70095 5.59172C7.6491 5.46967 7.54325 5.44747 7.4249 5.45377ZM6.5707 5.46552C6.30845 5.56717 6.37075 6.04007 6.6774 5.97582C6.87995 5.88317 6.884 5.52847 6.6489 5.47902L6.5707 5.46552Z" fill="white" fill-opacity="0.5"/>
<path d="M6.2297 7.13365C12.441 7.1339 18.6523 7.1342 24.8636 7.134C25.6086 7.13395 26.3592 7.11185 27.1033 7.132C27.5024 7.1428 27.3929 7.26825 27.3929 7.617C27.3939 13.7899 27.4155 19.9635 27.3931 26.1364C27.3925 26.2929 27.403 26.4625 27.3784 26.6172L27.3742 26.6415C27.3608 26.7224 27.3402 26.7972 27.2982 26.8686L27.2832 26.8915C27.2105 27.0061 27.1176 27.1236 26.9849 27.1722L26.9681 27.1778C26.8508 27.2183 26.7145 27.2062 26.5915 27.2065C24.0787 27.2112 21.5658 27.2073 19.053 27.2086C18.1611 27.2091 17.2653 27.1893 16.3741 27.2101L16.3338 18.9538C19.2254 18.9546 22.1169 18.9554 25.0085 18.9546C25.2577 18.9545 26.386 19.0109 26.5778 18.8962L26.6064 18.8782C26.6571 18.8458 26.6904 18.782 26.7012 18.724L26.7046 18.704C26.772 18.3235 26.7177 17.413 26.7178 16.9986C26.7184 14.1893 26.7179 11.3799 26.7185 8.57055C26.7186 8.3111 26.7299 8.04095 26.6762 7.7859C26.3962 7.61675 26.0384 7.6759 25.7238 7.67525C25.0134 7.67375 24.3029 7.67515 23.5925 7.675C23.4172 7.67495 23.2194 7.6571 23.0483 7.69625C22.7849 7.9356 22.8412 8.30555 23.1993 8.3149L26.0672 8.31305L26.0607 18.3566L25.6396 18.3524L5.9486 18.3494C5.93045 18.103 5.9389 17.8534 5.9388 17.6064C5.93745 14.6841 5.9367 11.7618 5.93805 8.8395C5.9381 8.6679 5.93005 8.4925 5.94765 8.32175C6.66185 8.2938 7.3866 8.3214 8.10165 8.3216C8.3565 8.3217 8.65755 8.354 8.9071 8.30655C9.0064 8.183 9.064 8.08145 9.0966 7.9268L9.073 7.87395C8.95455 7.6429 8.74805 7.6746 8.5294 7.6744C7.84405 7.67375 7.15875 7.6737 6.47345 7.67435C6.12045 7.67465 5.6555 7.60545 5.33185 7.7726C5.3152 8.05335 5.3028 8.2579 5.30265 8.54875C5.3014 11.8036 5.31785 15.0589 5.3008 18.3136C5.2975 18.9446 5.30745 18.9544 5.9865 18.9545C9.24255 18.9548 12.4987 18.9544 15.7548 18.954L15.7612 27.2031C14.8765 27.2194 13.9896 27.208 13.1046 27.2082C10.5614 27.2086 8.01445 27.2407 5.47165 27.2057C5.3572 27.2041 5.23125 27.2119 5.1186 27.1919L5.10075 27.1885C4.57763 27.0988 4.6034 26.531 4.60224 26.15C4.58561 20.6854 4.60302 15.2214 4.60224 9.7568C4.6022 9.4832 4.54806 7.26455 4.62643 7.16165C4.87985 7.0868 5.92295 7.13355 6.2297 7.13365ZM15.9091 9.5232C15.4393 9.6383 15.0773 9.9175 14.9977 10.4071L14.9938 10.4296C14.9551 10.6688 15.0024 10.8713 15.0803 11.0942C13.8113 11.3829 12.6961 12.4693 12.4093 13.7355C12.3633 13.9389 12.3431 14.143 12.3184 14.3494L12.291 15.0745C12.0013 15.0709 11.2553 14.9775 11.0815 15.1453L11.0447 15.1949C11.0118 15.245 11.0093 15.3174 11.022 15.3746L11.0808 15.5334C11.215 15.6322 11.3173 15.6414 11.4784 15.6418C11.5409 15.8742 12.1025 16.7567 12.2707 16.9368L16.1539 16.9339C17.1856 16.933 18.2173 16.9321 19.2491 16.9337C19.4102 16.9339 19.5709 16.9417 19.7313 16.9224C20.0255 16.5285 20.3206 16.0748 20.5344 15.6321C20.6297 15.6332 20.7188 15.6364 20.8117 15.6122L20.8407 15.6052C21.063 15.5233 21.0323 15.2452 20.8571 15.0878C20.5161 15.0182 20.1112 15.0732 19.7641 15.0785C19.7512 14.6496 19.7586 14.1886 19.6668 13.7665C19.3819 12.457 18.2361 11.3406 16.9157 11.0932C17.0175 10.8142 17.0763 10.5828 17.0143 10.285C16.9127 9.7977 16.3973 9.4553 15.9091 9.5232ZM9.80305 25.4149C8.7417 25.4245 7.68015 25.4167 6.6188 25.4178C6.3048 25.4181 6.1117 25.3731 5.9423 25.6847C5.9569 25.8374 5.99465 25.9345 6.0889 26.0567C6.31625 26.1 6.55615 26.0934 6.7866 26.0938C8.14785 26.0962 9.50905 26.0899 10.8703 26.0938C11.9727 26.0936 13.0768 26.112 14.1789 26.0831C14.4411 26.0763 14.58 26.1196 14.7278 25.8567L14.7367 25.7084C14.661 25.5994 14.5698 25.5061 14.458 25.4341L9.80305 25.4149ZM17.6909 25.3928C17.5938 25.4499 17.5252 25.503 17.4673 25.6024L17.422 25.6787C17.4026 26.2769 17.9375 26.0996 18.3898 26.0932C20.6231 26.0618 22.8611 26.0898 25.0948 26.0972C25.2887 26.0979 25.4915 26.1072 25.6843 26.0917L25.8237 26.0742C25.9827 26.02 26.0131 25.8609 26.0488 25.7174C25.9851 25.6063 25.9274 25.5206 25.8117 25.4568L25.7947 25.4471C25.7244 25.4104 25.6312 25.4201 25.5541 25.4202C22.9507 25.423 20.2878 25.4847 17.6909 25.3928ZM6.21265 24.0518C6.0124 24.1948 5.8891 24.2847 5.99525 24.5321L6.0055 24.557C6.09265 24.7387 6.29285 24.7057 6.4611 24.7079C8.05145 24.7286 9.6436 24.7274 11.2336 24.7102C12.3139 24.6985 13.3968 24.7418 14.4762 24.7041C14.8591 24.6075 14.8025 24.2982 14.5321 24.0822C14.316 24.0357 14.0645 24.06 13.843 24.06C11.5125 24.0601 9.1812 24.0744 6.85075 24.0596C6.64085 24.0583 6.4214 24.0289 6.21265 24.0518ZM6.25375 19.9873C5.9909 20.0839 5.89615 20.2764 6.00435 20.5278C6.24985 20.7219 6.81205 20.6277 7.1179 20.6276C9.5691 20.6267 12.0209 20.6477 14.4719 20.626C14.866 20.5796 14.8728 20.0124 14.4563 19.9871C14.0308 19.9612 13.591 19.9834 13.1643 19.9833C11.3643 19.9828 9.56425 19.9828 7.76425 19.9829C7.2636 19.9829 6.7535 19.9628 6.25375 19.9873ZM17.6738 24.0487C17.576 24.0855 17.4771 24.1487 17.4365 24.2509L17.3932 24.3911L17.4497 24.5723C17.717 24.8165 18.3746 24.7106 18.7446 24.7106C20.8693 24.7109 22.994 24.7069 25.1188 24.7106C25.2669 24.7108 25.4187 24.7217 25.5662 24.7152L25.7581 24.7003C26.086 24.5522 26.0684 24.2656 25.7696 24.0921C25.6944 24.0484 19.09 24.0247 17.6738 24.0487ZM17.6945 19.9898C17.5561 20.0288 17.4628 20.0809 17.3742 20.1964C17.3712 20.8106 18.0938 20.6277 18.5414 20.6276C20.9381 20.6275 23.3355 20.6501 25.7319 20.6257C25.9427 20.571 26.0849 20.3217 25.9492 20.1277L25.9318 20.1019C25.8889 20.0438 25.7882 19.9924 25.718 19.9874L17.6945 19.9898ZM6.30955 22.696C6.1382 22.7225 6.0369 22.7929 5.91935 22.9182C5.9472 23.0425 5.97825 23.1517 6.05795 23.2537L6.1011 23.3104L6.21135 23.3434C6.33035 23.3781 6.4928 23.3609 6.6174 23.3611C7.7042 23.3623 8.79095 23.3615 9.87775 23.3612C10.3638 23.361 10.8628 23.3382 11.3469 23.3759C11.5171 23.347 11.583 23.2688 11.6402 23.0946L11.6459 23.079C11.6888 22.9536 11.5579 22.8108 11.4724 22.7376L6.30955 22.696ZM17.6864 22.6896C17.2642 22.9327 17.4116 23.3152 17.7398 23.3571L22.5589 23.372C22.6295 23.3601 22.6827 23.3327 22.7253 23.2732L22.7572 23.2225C22.8631 23.0487 22.8364 22.9341 22.6945 22.7956L22.6763 22.7776C22.5532 22.6802 22.2665 22.7324 22.1202 22.7326C20.9006 22.7341 19.6803 22.696 18.4602 22.6937C18.2009 22.6932 17.946 22.7045 17.6864 22.6896ZM9.3377 21.2586L6.25665 21.2624C6.1812 21.2608 6.07815 21.335 6.02575 21.3868L5.9377 21.4821L5.94785 21.6017C5.97275 22.0718 6.5631 21.9151 6.882 21.9227C7.6877 21.913 8.49365 21.9282 9.2991 21.9111C9.48855 21.9072 9.69535 21.9397 9.882 21.913C10.2603 21.859 10.3843 21.3764 9.9836 21.2662L9.9689 21.2619C9.79185 21.2139 9.5212 21.2546 9.3377 21.2586ZM17.666 21.2514C17.3299 21.4755 17.3505 21.8871 17.6925 21.9229C17.8204 21.9363 17.959 21.9218 18.088 21.92C18.8252 21.9097 19.5634 21.9187 20.3006 21.9185C20.5684 21.9184 20.8854 21.9509 21.1456 21.8952C21.2527 21.8622 21.3348 21.8092 21.387 21.7068L21.4151 21.6474C21.4374 21.585 21.4246 21.5115 21.3924 21.4556L21.3669 21.4114C21.3266 21.3448 21.2475 21.2888 21.1796 21.2536L17.666 21.2514ZM7.92825 14.0086C7.64295 14.0094 7.3577 14.0102 7.07245 14.0136C6.77575 14.0171 6.57565 13.9299 6.53045 14.2821L6.52695 14.308C6.51405 14.41 6.5331 14.4998 6.5569 14.5981C6.98905 14.7371 7.84165 14.6738 8.3218 14.6733C8.5942 14.673 9.39875 14.7347 9.57255 14.5769C9.7662 14.4012 9.7029 14.1459 9.4836 14.047L9.4668 14.039C9.28595 13.9583 8.17485 14.0086 7.92825 14.0086ZM6.8228 15.4254C6.54265 15.5109 6.5025 15.6429 6.5797 15.9287C6.6161 15.9698 6.64995 16.0103 6.69445 16.0429C6.81655 16.0699 6.9398 16.0646 7.0641 16.0648C7.8278 16.0663 8.59155 16.0579 9.3552 16.0677C9.68235 16.052 9.75025 15.6235 9.4931 15.4865L9.3989 15.4456C9.218 15.3761 7.14245 15.421 6.8228 15.4254ZM6.8083 12.6329C6.6764 12.6798 6.57535 12.7125 6.5468 12.8603L6.5427 12.8805C6.4698 13.2515 6.7862 13.2531 7.0415 13.2517C7.61185 13.2485 8.18235 13.2513 8.7527 13.2507C8.97405 13.2504 9.21545 13.2709 9.43305 13.2303C9.5287 13.1929 9.59765 13.1511 9.641 13.0544L9.6609 13.01C9.7258 12.8564 9.6032 12.7337 9.49055 12.6453C9.27445 12.6 9.02315 12.6252 8.8007 12.6249C8.1712 12.6243 7.42565 12.6667 6.8083 12.6329ZM24.7179 12.5711C24.5561 12.6116 24.4417 12.657 24.3413 12.7939L24.3177 12.8255C24.4555 13.2697 24.7457 13.2459 25.1675 13.1991C25.5054 13.1047 25.6728 12.827 25.3237 12.6448L25.2597 12.6169C25.0984 12.5488 24.8909 12.5674 24.7179 12.5711ZM24.7553 13.8966C24.4686 13.971 24.3646 14.026 24.375 14.3274L24.4394 14.4294C24.5366 14.5496 24.9219 14.5486 25.0705 14.5479L25.1125 14.5474C25.1995 14.538 25.2722 14.5231 25.3547 14.4933C25.5139 14.2401 25.4834 14.0025 25.1789 13.9174L25.1595 13.9118C25.0302 13.8759 24.8875 13.8892 24.7553 13.8966ZM23.5844 12.5535C23.4191 12.5772 23.3158 12.624 23.2414 12.7745L23.2333 12.7901C23.1205 13.0262 23.4162 13.2403 23.6312 13.2146C23.7833 13.1738 23.8988 13.1137 23.9526 12.9618L23.9848 12.8755C23.9428 12.742 23.9015 12.6886 23.7805 12.6127L23.7665 12.6034C23.7162 12.5713 23.6435 12.56 23.5844 12.5535ZM23.5041 13.8759C23.3924 13.9192 23.2957 13.9884 23.2477 14.1024L23.2027 14.2183L23.2531 14.3694C23.3165 14.517 23.4856 14.5491 23.6283 14.5428C23.7748 14.4992 23.8542 14.4466 23.89 14.2978L23.8968 14.2719C23.9161 14.1918 23.9008 14.139 23.8791 14.063L23.8716 14.0362C23.7877 13.9494 23.7079 13.8773 23.5805 13.8749L23.5041 13.8759Z" fill="white" fill-opacity="0.5"/>
<path d="M15.8917 10.116C15.9843 10.1097 16.0883 10.1035 16.1752 10.1427L16.2505 10.1799C16.3445 10.2329 16.4172 10.3196 16.4474 10.4233L16.4888 10.5615C16.4364 10.7817 16.3545 10.9027 16.1257 10.9757C15.4514 11.0455 15.3334 10.2954 15.8917 10.116Z" fill="white" fill-opacity="0.5"/>
<path d="M12.2305 15.6792C12.4825 15.6532 12.757 15.6737 13.0115 15.6738C15.2879 15.6739 17.5645 15.6841 19.8409 15.6718L19.5824 16.1322C19.5685 16.1533 19.5588 16.1693 19.5525 16.1942L19.5347 16.2655C19.3978 16.3649 18.6168 16.2992 18.4164 16.2991C16.5587 16.2982 14.6979 16.2729 12.8405 16.2995C12.6986 16.3015 12.5682 16.3518 12.4581 16.246C12.4069 16.0584 12.2528 15.8635 12.2305 15.6792Z" fill="white" fill-opacity="0.5"/>
<path d="M12.9242 14.1777L19.1363 14.1793L19.1303 15.0363C18.9449 15.0024 18.7451 15.0145 18.5569 15.0143C16.8486 15.013 15.1395 15.0002 13.4313 15.0141C13.2505 15.0155 13.0692 15.0302 12.8887 15.0157C12.8931 14.7354 12.9005 14.4563 12.9242 14.1777Z" fill="white" fill-opacity="0.5"/>
<path d="M15.6471 11.6022C17.0801 11.4764 18.4265 12.1857 18.9944 13.5493L16.3659 13.531L13.0605 13.5658C13.1245 13.448 13.1725 13.3213 13.2361 13.2026C13.7008 12.3344 14.6605 11.6651 15.6471 11.6022Z" fill="white" fill-opacity="0.5"/>
</svg>
