<svg width="32" height="32" viewBox="0 0 32 32" fill="none" xmlns="http://www.w3.org/2000/svg">
<path d="M27.4297 16.4492L28.6585 16.4527C28.6794 16.5777 28.6691 16.7166 28.6695 16.8434L28.6541 17.5911L27.4444 17.5659L27.4297 16.4492Z" fill="white" fill-opacity="0.5"/>
<path d="M4.88385 16.4504L5.38788 16.4542C5.41228 16.5539 5.39688 16.6886 5.39708 16.7924L5.39303 17.5737C5.35673 17.5942 5.25603 17.5827 5.21138 17.5828L4.61812 17.5838L4.12721 17.5821L4.12695 16.4646C4.36927 16.431 4.63826 16.4518 4.88385 16.4504Z" fill="white" fill-opacity="0.5"/>
<path d="M12.6699 8.27797L17.9367 8.27377C18.6137 8.27387 18.8902 8.09229 18.8907 8.88322L18.8941 9.66098C19.1521 9.64636 19.4396 9.63315 19.6952 9.68009C19.8885 9.71553 20.2519 10.1406 19.9062 10.126L19.5703 10.1028C19.2034 10.0773 18.8177 10.102 18.4491 10.1035L11.7194 10.1025C11.5441 10.1023 11.3251 10.1254 11.1545 10.0914C10.9292 10.0465 11.1832 9.72694 11.3887 9.67544L11.4122 9.66968C11.5409 9.6358 11.6724 9.64256 11.8044 9.64241L12.3935 9.63925L12.4104 8.84453C12.417 8.58397 12.3751 8.43082 12.6327 8.29679L12.6699 8.27797Z" fill="white" fill-opacity="0.5"/>
<path d="M17.2586 10.5742L19.2813 10.5645C19.335 10.5653 19.4221 10.5624 19.4724 10.5833L19.4913 10.5936C19.67 10.6885 19.8111 10.8274 19.9559 10.9662L22.4392 13.2917C22.6444 13.4904 22.8518 13.6937 23.085 13.8597L23.0694 13.8813C22.6126 13.8545 22.145 13.8763 21.6868 13.8762L18.9414 13.8766C18.7506 13.8769 17.7133 13.9143 17.6085 13.8545L17.5928 13.845C17.2632 13.6588 17.2586 13.4253 17.2578 13.0951L17.2586 10.5742Z" fill="white" fill-opacity="0.5"/>
<path d="M8.90772 18.696C10.0084 18.5954 11.0693 19.3987 11.2454 20.5005L11.2483 20.5195C11.4622 21.7952 10.5664 23.0125 9.28277 23.1458C9.11922 23.1481 8.95072 23.1558 8.78817 23.1358C7.11697 22.9306 6.34517 20.8802 7.41222 19.5053C7.78842 19.0205 8.30732 18.7689 8.90772 18.696ZM9.10807 20.1818C8.74102 20.1971 8.42052 20.3766 8.34097 20.7541L8.33692 20.7718C8.30117 20.9381 8.35492 21.1241 8.44627 21.2639L8.47452 21.3053C8.52837 21.3849 8.59347 21.4486 8.67252 21.5026L8.69067 21.5152C8.79152 21.5834 8.92642 21.6224 9.04702 21.6352C9.98737 21.5607 10.1005 20.262 9.10807 20.1818Z" fill="white" fill-opacity="0.5"/>
<path d="M23.3882 18.697C24.8982 18.5744 26.1551 19.9618 25.797 21.4358C25.5788 22.3342 24.838 23.0204 23.9142 23.1402C23.5051 23.1743 23.123 23.1379 22.7471 22.9613L22.4299 22.7829C20.7033 21.5586 21.3546 19.0063 23.3882 18.697ZM23.5143 20.1973C23.2269 20.2508 22.9544 20.4253 22.8906 20.7241L22.8863 20.7417C22.7731 21.2499 23.2267 21.6987 23.7324 21.6296C24.0149 21.5555 24.2419 21.3822 24.3287 21.0995L24.3373 21.0741C24.4462 20.7423 24.2619 20.393 23.9533 20.2548L23.9356 20.2468C23.7997 20.1866 23.6592 20.1894 23.5143 20.1973Z" fill="white" fill-opacity="0.5"/>
<path d="M9.60571 10.5639L16.392 10.5586C16.9278 10.5584 16.8195 10.9466 16.82 11.3626L16.8213 13.1614C16.8223 13.4204 16.8354 13.6439 16.9841 13.8642L17.0011 13.8876C17.3152 14.3298 17.7457 14.3115 18.2258 14.3128L23.2401 14.3232C23.4536 14.3345 23.6655 14.383 23.8751 14.4234L27.9534 15.2913C28.0431 15.3116 28.1673 15.3114 28.2481 15.3552L28.2737 15.3726C28.4447 15.4847 28.6356 15.7435 28.6086 15.9551L23.2112 15.9445L4.8061 15.9471C4.60414 15.9474 4.38192 15.9314 4.18308 15.9659L4.16602 15.9691C4.23685 15.3556 4.42619 14.7372 4.65185 14.1639C5.50471 11.9972 7.26911 10.5899 9.60571 10.5639Z" fill="white" fill-opacity="0.5"/>
<path d="M5.82442 16.3984L27.0017 16.3992L27.009 17.6355C27.0214 17.748 27.065 17.8508 27.1537 17.9229L27.1711 17.9368C27.3763 18.1058 28.3815 18.0594 28.6737 18.0426L28.675 19.9419C28.6738 20.5867 28.2866 20.6503 27.7877 20.6517L26.866 20.6516C26.7343 20.6514 26.3024 20.6791 26.2048 20.6277L26.2145 20.5866C26.2554 20.4551 26.0806 20.0047 26.0215 19.868C25.7197 19.1705 25.1449 18.6808 24.4484 18.4065C22.9387 17.9433 21.3224 18.8528 21.0763 20.4649L21.0561 20.6527L11.9653 20.6517C11.8706 20.6514 11.7697 20.6595 11.6766 20.6429L11.6848 20.6232C11.7537 20.4377 11.5129 19.8748 11.422 19.6926C10.3252 17.492 6.90692 18.0106 6.54477 20.4522C6.53632 20.5094 6.53042 20.5867 6.51332 20.6398L4.78851 20.6512C4.32671 20.6485 4.11814 20.3674 4.11783 19.945L4.11719 18.0396L4.8694 18.0505C5.03887 18.0525 5.22932 18.0705 5.39567 18.0406L5.42107 18.0357C5.58357 18.0085 5.75372 17.8897 5.80467 17.7286L5.80942 17.7122C5.84037 17.6105 5.83637 17.4882 5.83982 17.3817L5.83397 16.6982C5.82942 16.6074 5.80552 16.4857 5.82442 16.3984Z" fill="white" fill-opacity="0.5"/>
</svg>
