<svg width="31" height="31" viewBox="0 0 31 31" fill="none" xmlns="http://www.w3.org/2000/svg">
<path d="M10.0068 15.5769C10.0068 12.8131 12.246 10.572 15.009 10.572C17.772 10.572 20.0124 12.8131 20.0124 15.5769C20.0124 18.3406 17.772 20.5817 15.009 20.5817C12.246 20.5817 10.0068 18.3406 10.0068 15.5769ZM7.30206 15.5769C7.30206 19.8347 10.7524 23.286 15.009 23.286C19.2656 23.286 22.7159 19.8347 22.7159 15.5769C22.7159 11.3191 19.2656 7.8677 15.009 7.8677C10.7524 7.8677 7.30206 11.3191 7.30206 15.5769ZM21.22 7.56203C21.2198 7.91836 21.3253 8.26672 21.5231 8.56307C21.7209 8.85942 22.0021 9.09045 22.3311 9.22694C22.6602 9.36343 23.0223 9.39925 23.3717 9.32988C23.7211 9.2605 24.0421 9.08904 24.2941 8.83719C24.5461 8.58533 24.7177 8.26438 24.7874 7.91494C24.857 7.56549 24.8215 7.20323 24.6853 6.87398C24.5491 6.54472 24.3184 6.26326 24.0223 6.06518C23.7262 5.8671 23.378 5.7613 23.0218 5.76115H23.021C22.5436 5.76138 22.0857 5.95116 21.748 6.28882C21.4103 6.62648 21.2204 7.08441 21.22 7.56203ZM8.94536 27.7974C7.48205 27.7307 6.68669 27.4869 6.15813 27.2809C5.45739 27.008 4.95741 26.683 4.43174 26.1579C3.90606 25.6328 3.58067 25.1332 3.30906 24.4322C3.10302 23.9037 2.85927 23.1079 2.79275 21.6442C2.71999 20.0617 2.70546 19.5863 2.70546 15.577C2.70546 11.5677 2.72119 11.0936 2.79275 9.5098C2.85939 8.04606 3.10494 7.2518 3.30906 6.72177C3.58187 6.02082 3.90678 5.5207 4.43174 4.99487C4.95669 4.46905 5.45619 4.14356 6.15813 3.87188C6.68645 3.66577 7.48205 3.42196 8.94536 3.35542C10.5274 3.28263 11.0027 3.2681 15.009 3.2681C19.0153 3.2681 19.491 3.28383 21.0744 3.35542C22.5378 3.42208 23.3318 3.66769 23.8617 3.87188C24.5624 4.14356 25.0624 4.46977 25.5881 4.99487C26.1137 5.51998 26.4379 6.02082 26.7107 6.72177C26.9168 7.25024 27.1605 8.04606 27.227 9.5098C27.2998 11.0936 27.3143 11.5677 27.3143 15.577C27.3143 19.5863 27.2998 20.0603 27.227 21.6442C27.1604 23.1079 26.9155 23.9035 26.7107 24.4322C26.4379 25.1332 26.113 25.6333 25.5881 26.1579C25.0631 26.6825 24.5624 27.008 23.8617 27.2809C23.3334 27.487 22.5378 27.7308 21.0744 27.7974C19.4924 27.8701 19.0171 27.8847 15.009 27.8847C11.0009 27.8847 10.527 27.8701 8.94536 27.7974ZM8.82109 0.654458C7.22329 0.727243 6.13148 0.980668 5.17798 1.3518C4.19051 1.73506 3.35457 2.24923 2.51923 3.0835C1.68389 3.91776 1.17118 4.75526 0.788033 5.74302C0.41701 6.69738 0.163658 7.78891 0.0908945 9.38717C0.0169302 10.988 0 11.4997 0 15.5769C0 19.654 0.0169302 20.1658 0.0908945 21.7666C0.163658 23.3649 0.41701 24.4564 0.788033 25.4107C1.17118 26.3979 1.68401 27.2363 2.51923 28.0702C3.35445 28.9041 4.19051 29.4176 5.17798 29.8019C6.13328 30.1731 7.22329 30.4265 8.82109 30.4993C10.4222 30.5721 10.933 30.5902 15.009 30.5902C19.085 30.5902 19.5966 30.5733 21.1969 30.4993C22.7948 30.4265 23.8859 30.1731 24.84 29.8019C25.8269 29.4176 26.6634 28.9045 27.4988 28.0702C28.3341 27.236 28.8457 26.3979 29.23 25.4107C29.601 24.4564 29.8555 23.3648 29.9271 21.7666C29.9999 20.1646 30.0168 19.654 30.0168 15.5769C30.0168 11.4997 29.9999 10.988 29.9271 9.38717C29.8543 7.78879 29.601 6.69678 29.23 5.74302C28.8457 4.75586 28.3328 3.91908 27.4988 3.0835C26.6647 2.24791 25.8269 1.73506 24.8412 1.3518C23.8859 0.980668 22.7947 0.726042 21.1981 0.654458C19.5978 0.581674 19.0862 0.563538 15.0102 0.563538C10.9342 0.563538 10.4222 0.580473 8.82109 0.654458Z" fill="white"/>
</svg>
