<svg width="22" height="22" viewBox="0 0 22 22" fill="none" xmlns="http://www.w3.org/2000/svg">
<path d="M7.35632 11C7.35632 8.98942 8.98671 7.35913 10.9985 7.35913C13.0102 7.35913 14.6415 8.98942 14.6415 11C14.6415 13.0105 13.0102 14.6408 10.9985 14.6408C8.98671 14.6408 7.35632 13.0105 7.35632 11ZM5.38698 11C5.38698 14.0973 7.89923 16.6081 10.9985 16.6081C14.0977 16.6081 16.6099 14.0973 16.6099 11C16.6099 7.90259 14.0977 5.39185 10.9985 5.39185C7.89923 5.39185 5.38698 7.90259 5.38698 11ZM15.5207 5.16949C15.5206 5.4287 15.5974 5.68212 15.7414 5.8977C15.8854 6.11328 16.0902 6.28135 16.3297 6.38064C16.5693 6.47993 16.833 6.50599 17.0874 6.45552C17.3418 6.40505 17.5755 6.28033 17.759 6.09711C17.9424 5.91389 18.0674 5.68042 18.1181 5.42621C18.1688 5.172 18.143 4.90847 18.0438 4.66895C17.9447 4.42944 17.7767 4.22468 17.5611 4.08059C17.3455 3.93649 17.092 3.85953 16.8326 3.85942H16.8321C16.4844 3.85958 16.151 3.99764 15.9051 4.24328C15.6593 4.48891 15.521 4.82204 15.5207 5.16949ZM6.58348 19.8899C5.51803 19.8414 4.93893 19.664 4.55408 19.5142C4.04387 19.3156 3.67983 19.0792 3.29709 18.6972C2.91434 18.3152 2.67742 17.9518 2.47966 17.4419C2.32964 17.0574 2.15217 16.4785 2.10373 15.4137C2.05075 14.2625 2.04017 13.9166 2.04017 11C2.04017 8.08345 2.05163 7.73859 2.10373 6.58641C2.15225 5.5216 2.33104 4.9438 2.47966 4.55823C2.67829 4.04832 2.91486 3.6845 3.29709 3.30198C3.67931 2.91947 4.043 2.68269 4.55408 2.48505C4.93875 2.33512 5.51803 2.15775 6.58348 2.10935C7.7354 2.0564 8.08142 2.04583 10.9985 2.04583C13.9155 2.04583 14.2619 2.05727 15.4147 2.10935C16.4802 2.15784 17.0583 2.33652 17.4441 2.48505C17.9543 2.68269 18.3184 2.91999 18.7011 3.30198C19.0839 3.68398 19.3199 4.04832 19.5186 4.55823C19.6686 4.94267 19.846 5.5216 19.8945 6.58641C19.9475 7.73859 19.958 8.08345 19.958 11C19.958 13.9166 19.9475 14.2615 19.8945 15.4137C19.846 16.4785 19.6676 17.0572 19.5186 17.4419C19.3199 17.9518 19.0833 18.3156 18.7011 18.6972C18.3189 19.0789 17.9543 19.3156 17.4441 19.5142C17.0595 19.6641 16.4802 19.8415 15.4147 19.8899C14.2628 19.9428 13.9168 19.9534 10.9985 19.9534C8.08011 19.9534 7.73505 19.9428 6.58348 19.8899ZM6.493 0.14451C5.32963 0.197458 4.53468 0.381814 3.84043 0.651796C3.12145 0.930602 2.51279 1.30464 1.90458 1.91154C1.29636 2.51843 0.923057 3.12768 0.644083 3.84623C0.37394 4.54049 0.189473 5.33454 0.136493 6.4972C0.0826394 7.66171 0.0703125 8.034 0.0703125 11C0.0703125 13.9659 0.0826394 14.3382 0.136493 15.5027C0.189473 16.6655 0.37394 17.4594 0.644083 18.1537C0.923057 18.8718 1.29645 19.4817 1.90458 20.0884C2.51271 20.695 3.12145 21.0685 3.84043 21.3481C4.53599 21.6181 5.32963 21.8025 6.493 21.8554C7.65881 21.9083 8.03072 21.9215 10.9985 21.9215C13.9662 21.9215 14.3387 21.9092 15.5039 21.8554C16.6674 21.8025 17.4618 21.6181 18.1565 21.3481C18.875 21.0685 19.4841 20.6953 20.0923 20.0884C20.7005 19.4815 21.0731 18.8718 21.3528 18.1537C21.623 17.4594 21.8083 16.6654 21.8604 15.5027C21.9134 14.3373 21.9257 13.9659 21.9257 11C21.9257 8.034 21.9134 7.66171 21.8604 6.4972C21.8074 5.33445 21.623 4.54005 21.3528 3.84623C21.0731 3.12811 20.6996 2.51939 20.0923 1.91154C19.4851 1.30368 18.875 0.930602 18.1573 0.651796C17.4618 0.381814 16.6673 0.196584 15.5048 0.14451C14.3396 0.0915624 13.9671 0.0783691 10.9993 0.0783691C8.03159 0.0783691 7.65881 0.0906887 6.493 0.14451Z" fill="url(#paint0_radial_989_27767)"/>
<path d="M7.35632 11C7.35632 8.98942 8.98671 7.35913 10.9985 7.35913C13.0102 7.35913 14.6415 8.98942 14.6415 11C14.6415 13.0105 13.0102 14.6408 10.9985 14.6408C8.98671 14.6408 7.35632 13.0105 7.35632 11ZM5.38698 11C5.38698 14.0973 7.89923 16.6081 10.9985 16.6081C14.0977 16.6081 16.6099 14.0973 16.6099 11C16.6099 7.90259 14.0977 5.39185 10.9985 5.39185C7.89923 5.39185 5.38698 7.90259 5.38698 11ZM15.5207 5.16949C15.5206 5.4287 15.5974 5.68212 15.7414 5.8977C15.8854 6.11328 16.0902 6.28135 16.3297 6.38064C16.5693 6.47993 16.833 6.50599 17.0874 6.45552C17.3418 6.40505 17.5755 6.28033 17.759 6.09711C17.9424 5.91389 18.0674 5.68042 18.1181 5.42621C18.1688 5.172 18.143 4.90847 18.0438 4.66895C17.9447 4.42944 17.7767 4.22468 17.5611 4.08059C17.3455 3.93649 17.092 3.85953 16.8326 3.85942H16.8321C16.4844 3.85958 16.151 3.99764 15.9051 4.24328C15.6593 4.48891 15.521 4.82204 15.5207 5.16949ZM6.58348 19.8899C5.51803 19.8414 4.93893 19.664 4.55408 19.5142C4.04387 19.3156 3.67983 19.0792 3.29709 18.6972C2.91434 18.3152 2.67742 17.9518 2.47966 17.4419C2.32964 17.0574 2.15217 16.4785 2.10373 15.4137C2.05075 14.2625 2.04017 13.9166 2.04017 11C2.04017 8.08345 2.05163 7.73859 2.10373 6.58641C2.15225 5.5216 2.33104 4.9438 2.47966 4.55823C2.67829 4.04832 2.91486 3.6845 3.29709 3.30198C3.67931 2.91947 4.043 2.68269 4.55408 2.48505C4.93875 2.33512 5.51803 2.15775 6.58348 2.10935C7.7354 2.0564 8.08142 2.04583 10.9985 2.04583C13.9155 2.04583 14.2619 2.05727 15.4147 2.10935C16.4802 2.15784 17.0583 2.33652 17.4441 2.48505C17.9543 2.68269 18.3184 2.91999 18.7011 3.30198C19.0839 3.68398 19.3199 4.04832 19.5186 4.55823C19.6686 4.94267 19.846 5.5216 19.8945 6.58641C19.9475 7.73859 19.958 8.08345 19.958 11C19.958 13.9166 19.9475 14.2615 19.8945 15.4137C19.846 16.4785 19.6676 17.0572 19.5186 17.4419C19.3199 17.9518 19.0833 18.3156 18.7011 18.6972C18.3189 19.0789 17.9543 19.3156 17.4441 19.5142C17.0595 19.6641 16.4802 19.8415 15.4147 19.8899C14.2628 19.9428 13.9168 19.9534 10.9985 19.9534C8.08011 19.9534 7.73505 19.9428 6.58348 19.8899ZM6.493 0.14451C5.32963 0.197458 4.53468 0.381814 3.84043 0.651796C3.12145 0.930602 2.51279 1.30464 1.90458 1.91154C1.29636 2.51843 0.923057 3.12768 0.644083 3.84623C0.37394 4.54049 0.189473 5.33454 0.136493 6.4972C0.0826394 7.66171 0.0703125 8.034 0.0703125 11C0.0703125 13.9659 0.0826394 14.3382 0.136493 15.5027C0.189473 16.6655 0.37394 17.4594 0.644083 18.1537C0.923057 18.8718 1.29645 19.4817 1.90458 20.0884C2.51271 20.695 3.12145 21.0685 3.84043 21.3481C4.53599 21.6181 5.32963 21.8025 6.493 21.8554C7.65881 21.9083 8.03072 21.9215 10.9985 21.9215C13.9662 21.9215 14.3387 21.9092 15.5039 21.8554C16.6674 21.8025 17.4618 21.6181 18.1565 21.3481C18.875 21.0685 19.4841 20.6953 20.0923 20.0884C20.7005 19.4815 21.0731 18.8718 21.3528 18.1537C21.623 17.4594 21.8083 16.6654 21.8604 15.5027C21.9134 14.3373 21.9257 13.9659 21.9257 11C21.9257 8.034 21.9134 7.66171 21.8604 6.4972C21.8074 5.33445 21.623 4.54005 21.3528 3.84623C21.0731 3.12811 20.6996 2.51939 20.0923 1.91154C19.4851 1.30368 18.875 0.930602 18.1573 0.651796C17.4618 0.381814 16.6673 0.196584 15.5048 0.14451C14.3396 0.0915624 13.9671 0.0783691 10.9993 0.0783691C8.03159 0.0783691 7.65881 0.0906887 6.493 0.14451Z" fill="url(#paint1_radial_989_27767)"/>
<defs>
<radialGradient id="paint0_radial_989_27767" cx="0" cy="0" r="1" gradientUnits="userSpaceOnUse" gradientTransform="translate(2.97405 22.0247) scale(28.5315 28.5144)">
<stop offset="0.09" stop-color="#FA8F21"/>
<stop offset="0.78" stop-color="#D82D7E"/>
</radialGradient>
<radialGradient id="paint1_radial_989_27767" cx="0" cy="0" r="1" gradientUnits="userSpaceOnUse" gradientTransform="translate(13.3252 23.0033) scale(22.4868 22.4733)">
<stop offset="0.64" stop-color="#8C3AAA" stop-opacity="0"/>
<stop offset="1" stop-color="#8C3AAA"/>
</radialGradient>
</defs>
</svg>
