<svg width="32" height="32" viewBox="0 0 32 32" fill="none" xmlns="http://www.w3.org/2000/svg">
<path d="M14.6797 11.7129L17.3267 11.7183L17.3223 13.3333C17.3207 13.3885 17.3226 13.4591 17.2975 13.5096L17.2858 13.5285C17.1169 13.8344 16.6541 13.7134 16.3598 13.7386L16.3596 14.1307C16.3602 14.3623 16.3944 14.6659 16.335 14.8891C16.2695 15.1353 15.8887 15.1708 15.7248 15.0016C15.6023 14.8752 15.6452 14.617 15.646 14.4592L15.6428 13.7372C14.6971 13.6252 14.6818 13.9386 14.68 12.8609L14.6797 11.7129Z" fill="white" fill-opacity="0.5"/>
<path d="M10.3147 17.4601C10.4064 17.4459 10.5024 17.4528 10.5951 17.4532L21.4808 17.455C22.0063 17.4558 21.8748 17.8042 21.8746 18.1827L21.8739 18.9512C21.8733 19.2056 21.9648 19.3841 21.6771 19.3811L10.1372 19.3757C10.1131 19.2994 10.1014 17.7314 10.1304 17.6251C10.1498 17.554 10.2548 17.4941 10.3147 17.4601Z" fill="white" fill-opacity="0.5"/>
<path d="M17.0102 4.09998C17.1195 4.09184 18.5216 4.07951 18.6042 4.10564L18.6904 4.13445C18.7852 4.17424 18.8478 4.25387 18.8833 4.34812L18.892 4.37172C18.9093 4.41378 18.9218 4.44318 18.9229 4.49019L18.916 10.2321C18.9119 10.5219 18.9932 10.9339 18.5896 10.9706C18.1747 11.0083 17.7367 10.9855 17.3191 10.9857L15.0395 10.9857L13.9247 10.9845C13.5078 10.983 13.1186 11.1085 13.0928 10.5629L13.0851 4.67072C13.0842 4.45894 13.0608 4.26568 13.2809 4.15647L13.3051 4.14493C13.4557 4.07234 13.7232 4.10996 13.8931 4.1098L17.0102 4.09998Z" fill="white" fill-opacity="0.5"/>
<path d="M8.34326 5.30859L12.3127 5.31535C12.2845 5.60103 12.3015 5.90267 12.3012 6.19005L12.2999 7.81254C12.2998 7.91549 12.3216 8.31488 12.2898 8.36893L9.68546 8.36918C9.35696 8.36953 9.08251 8.38079 8.87311 8.68634L8.86381 8.70036C8.79836 8.79485 8.75656 8.89289 8.75096 9.00846L8.74956 18.0876L8.75976 19.3549C8.68586 19.3855 8.56316 19.3722 8.48226 19.3724L6.07086 19.3753L6.06386 7.99747C6.06401 7.80844 6.05501 7.6141 6.08141 7.42661C6.24521 6.26162 7.18426 5.4208 8.34326 5.30859Z" fill="white" fill-opacity="0.5"/>
<path d="M19.6727 5.30469C20.0388 5.33407 20.4181 5.3143 20.7853 5.31405L23.5089 5.31164C24.9536 5.317 25.919 6.41978 25.9201 7.85743L25.919 19.3443C25.6285 19.4034 25.2899 19.3701 24.9937 19.3708L23.2397 19.3733C23.2176 19.1723 23.2318 18.96 23.2317 18.7573L23.2316 10.0338C23.2317 9.7163 23.3134 9.01341 23.138 8.74255L23.1272 8.72653C22.9125 8.39681 22.6803 8.36918 22.3245 8.36858L19.6823 8.37078C19.6613 8.31428 19.6734 8.21803 19.6733 8.15672L19.6727 5.30469Z" fill="white" fill-opacity="0.5"/>
<path d="M11.116 20.1074L25.8743 20.1109C26.5126 20.1437 27.1249 20.4818 27.3981 21.0857C27.4537 21.2086 27.4784 21.3322 27.5232 21.4571L27.5467 21.5288C27.5948 21.7162 27.5661 21.9688 27.5663 22.1636L27.5673 24.3281C27.5672 24.5151 27.5816 24.719 27.5547 24.9037C27.4406 25.6884 26.8245 26.29 26.055 26.4541C25.8485 26.4981 25.6239 26.4819 25.4137 26.482L20.8698 26.4822L6.39022 26.4819C6.23247 26.4819 6.06207 26.4941 5.90657 26.4712C5.20307 26.3682 4.4722 25.6205 4.4212 24.9119C4.40527 24.6906 4.41412 24.4625 4.4139 24.2405L4.41173 22.3111C4.4075 22.04 4.38153 21.746 4.43998 21.4794C4.58241 20.8297 5.14122 20.2896 5.78662 20.1474C6.02382 20.0952 6.29017 20.1103 6.53187 20.11L11.116 20.1074ZM23.9917 21.811C23.3237 21.8601 22.8122 22.2957 22.6599 22.9445L22.6554 22.9626C22.436 23.8837 23.2612 24.7686 24.1832 24.7035C26.0768 24.5681 25.9247 21.6816 23.9917 21.811ZM6.82297 23.9356C6.74197 23.9473 6.67317 23.9531 6.60537 24.0031L6.58722 24.0163C6.51472 24.0703 6.45867 24.1469 6.42237 24.2296C6.49652 24.9109 7.02247 24.7123 7.60537 24.7123L12.6838 24.7063C12.9139 24.6624 12.997 24.5118 13.052 24.2939C12.9023 23.9221 12.7746 23.944 12.4164 23.9431L6.86912 23.9387C6.84262 23.9395 6.85347 23.9395 6.82297 23.9356ZM6.82572 21.905C6.75382 21.906 6.68532 21.9 6.62242 21.9397L6.60597 21.9497C6.25272 22.1727 6.44747 22.6429 6.73692 22.6546L12.6404 22.6562C12.9066 22.6257 13.1157 22.4239 13.0074 22.1352L13.0008 22.1165C12.9773 22.0548 12.9176 21.9999 12.8606 21.9697L12.8466 21.9619C12.7964 21.9346 12.7472 21.917 12.6897 21.914L6.82572 21.905Z" fill="white" fill-opacity="0.5"/>
<path d="M23.9923 22.5232C24.3046 22.488 24.5993 22.6185 24.7471 22.911L24.7572 22.933C25.0014 23.4265 24.668 23.8253 24.1907 23.9332C23.3782 24.0385 23.0523 23.0576 23.667 22.6535L23.6846 22.6423C23.7786 22.5811 23.882 22.543 23.9923 22.5232Z" fill="white" fill-opacity="0.5"/>
</svg>
