<svg width="44" height="44" viewBox="0 0 44 44" fill="none" xmlns="http://www.w3.org/2000/svg">
<path d="M0.674999 40.6749L37.475 3.8749H9.5C9.00272 3.8749 8.5258 3.67735 8.17417 3.32572C7.82254 2.97409 7.625 2.49717 7.625 1.99989C7.625 1.50261 7.82254 1.0257 8.17417 0.674065C8.5258 0.322437 9.00272 0.124893 9.5 0.124893H42C42.4973 0.124893 42.9742 0.322437 43.3258 0.674065C43.6775 1.0257 43.875 1.50261 43.875 1.99989V34.4999C43.875 34.9972 43.6775 35.4741 43.3258 35.8257C42.9742 36.1774 42.4973 36.3749 42 36.3749C41.5027 36.3749 41.0258 36.1774 40.6742 35.8257C40.3225 35.4741 40.125 34.9972 40.125 34.4999V6.52489L3.325 43.3249C2.96956 43.6561 2.49945 43.8364 2.01369 43.8278C1.52794 43.8193 1.06448 43.6225 0.720947 43.279C0.377415 42.9354 0.180634 42.472 0.172066 41.9862C0.163494 41.5004 0.3438 41.0303 0.674999 40.6749Z" fill="#F9F9F9"/>
</svg>
