<svg width="32" height="32" viewBox="0 0 32 32" fill="none" xmlns="http://www.w3.org/2000/svg">
<path d="M15.3817 20.2773L16.7588 20.2815L16.7534 21.2018L16.6945 21.2069L15.2997 21.1971C15.2985 21.0985 15.283 20.2986 15.2917 20.2805L15.3817 20.2773Z" fill="white" fill-opacity="0.5"/>
<path d="M15.2608 21.5908L16.3053 21.5902C16.7909 21.5912 17.3483 21.5427 17.8175 21.6714L17.8543 21.8342C17.8701 21.9155 17.8915 22.1554 17.8464 22.2237C17.6539 22.3344 17.0646 22.2764 16.8356 22.2867C16.6217 22.2698 16.3972 22.2825 16.1825 22.2826L14.9067 22.283C14.6729 22.283 14.4341 22.2919 14.2018 22.2628L14.2012 21.701C14.5599 21.675 14.8977 21.5991 15.2608 21.5908Z" fill="white" fill-opacity="0.5"/>
<path d="M11.4844 19.002L20.565 19.0051C20.5766 19.1064 20.597 19.7992 20.563 19.8425L11.4957 19.8408L11.4844 19.002Z" fill="white" fill-opacity="0.5"/>
<path d="M4.24219 10.9727L27.7972 10.9688L27.8007 11.5742C27.801 11.647 27.8164 11.7552 27.7886 11.8225L5.18792 11.831C4.87989 11.8307 4.55901 11.848 4.25312 11.8095L4.24219 10.9727Z" fill="white" fill-opacity="0.5"/>
<path d="M5.68041 12.2422L8.92721 12.2449C8.91211 12.6271 8.88036 12.7402 8.48586 12.769C8.43031 13.1755 8.45396 13.6027 8.45386 14.0126L8.45611 21.7162C8.50606 21.7566 8.57391 21.7515 8.63516 21.7576L8.99996 21.7895L8.96956 22.2751C8.59661 22.3149 8.20211 22.2869 7.83461 22.287L5.62891 22.2873L5.63041 21.7907C5.79306 21.7597 5.95606 21.7621 6.11831 21.7214L6.11931 12.923C6.11796 12.8734 6.12391 12.8183 6.10386 12.7728L5.83656 12.7387C5.79026 12.7053 5.76656 12.6822 5.74916 12.6269L5.74261 12.6049C5.70586 12.4856 5.69441 12.3656 5.68041 12.2422Z" fill="white" fill-opacity="0.5"/>
<path d="M23.1324 12.2541L26.3217 12.2461C26.3778 13.0965 25.961 12.3369 25.9243 13.05L25.9191 20.3571C25.9195 20.8185 25.8987 21.2908 25.9318 21.7506L26.4196 21.7822L26.4261 22.1076C26.4268 22.1632 26.435 22.2285 26.4206 22.2824L26.3735 22.2812L23.0526 22.2872C23.0532 22.1333 23.0424 21.9561 23.0673 21.805C23.2117 21.8249 23.4233 21.7815 23.5543 21.7281C23.5689 21.604 23.5625 21.4762 23.5626 21.3515L23.5533 12.7803C23.458 12.7772 23.3597 12.7675 23.2675 12.7428C23.1873 12.648 23.0797 12.3584 23.1324 12.2541Z" fill="white" fill-opacity="0.5"/>
<path d="M19.0876 13.8108L19.1465 18.5669L12.9251 18.5686L12.8655 14.3951C12.8657 14.202 12.8561 14.0026 12.8754 13.8105L19.0876 13.8108Z" fill="white" fill-opacity="0.5"/>
<path d="M14.9306 22.7129L27.5168 22.7181V24.0998L17.0126 24.0951L4.51523 24.0917L4.51731 23.2054C4.51795 23.0527 4.49946 22.8627 4.54021 22.7159L14.9306 22.7129Z" fill="white" fill-opacity="0.5"/>
<path d="M3.55363 24.5059L28.2132 24.5268C28.624 24.5225 28.4881 24.6012 28.4891 25.0942L28.4508 26.0759L3.54677 26.0712C3.5089 25.5583 3.49932 25.0176 3.55363 24.5059Z" fill="white" fill-opacity="0.5"/>
<path d="M15.9778 4.638C16.0492 4.62308 16.0847 4.63179 16.1488 4.66183L22.5785 7.69922L27.498 9.84262C27.5874 9.88311 27.6824 9.89352 27.7787 9.90913L27.7425 10.5486C27.301 10.4967 26.8357 10.5253 26.3903 10.5251L16.0259 10.525L4.23828 10.5403L4.23853 9.96989C4.31754 9.89432 4.47163 9.86959 4.57554 9.82295L7.46913 8.56762L15.9778 4.638ZM15.904 5.99886C13.8377 6.14651 13.9082 9.22967 16.0902 9.21721C16.7307 9.19924 17.2812 8.73829 17.5185 8.15537C17.8977 7.22421 17.1931 6.08265 16.1828 6.00477L15.904 5.99886Z" fill="white" fill-opacity="0.5"/>
<path d="M15.8934 6.40098C16.0613 6.39128 16.2245 6.40854 16.3834 6.4663L16.4057 6.47456C17.667 6.93446 17.3299 8.64483 16.1833 8.7755C15.5371 8.83591 14.857 8.47001 14.826 7.7524C14.7949 7.0316 15.1695 6.54022 15.8934 6.40098Z" fill="white" fill-opacity="0.5"/>
</svg>
