<svg width="111" height="86" viewBox="0 0 111 86" fill="none" xmlns="http://www.w3.org/2000/svg">
<path d="M11.7987 77.5336C12.931 77.5336 13.4694 77.0107 13.4694 76.27C13.4694 75.5293 12.8895 75.0064 11.7298 75.0064H9.68628V77.5336H11.7987ZM11.5641 74.0261C12.4339 74.0261 12.8481 73.6448 12.8481 73.0892C12.8481 72.5336 12.4477 72.1525 11.5363 72.1525H9.68628V74.0261H11.5641ZM8.22266 71.1394H11.633C13.3865 71.1394 14.284 71.9782 14.284 73.0021C14.284 73.7101 13.8284 74.2112 13.0138 74.4292C14.2702 74.6579 14.9329 75.3659 14.9329 76.3136C14.9329 77.5881 13.856 78.5467 11.8816 78.5467H8.22266V71.1394Z" fill="#2A3890"/>
<path d="M19.2656 75.9433V71.1394H20.7291V75.8779C20.7291 77.0762 21.4748 77.61 22.8416 77.61C24.2085 77.61 24.968 77.0762 24.968 75.8779V71.1394H26.4177V75.9433C26.4177 77.7407 24.8712 78.6449 22.8416 78.6449C20.7981 78.6449 19.2656 77.7407 19.2656 75.9433Z" fill="#2A3890"/>
<path d="M33.4882 72.1525H30.6992V71.1394H37.7269V72.1525H34.9381V78.5467H33.4882V72.1525Z" fill="#2A3890"/>
<path d="M44.2265 72.1525H41.4375V71.1394H48.4652V72.1525H45.6763V78.5467H44.2265V72.1525Z" fill="#2A3890"/>
<path d="M52.8008 71.1394H58.7655V72.1525H54.2643V75.0283H58.2545V76.0196H54.2643V77.5336H58.9587V78.5467H52.8008V71.1394Z" fill="#2A3890"/>
<path d="M65.9559 75.6492C67.8199 75.6492 68.5654 75.0065 68.5654 73.9064C68.5654 72.7952 67.7921 72.1525 65.9559 72.1525H65.1276V75.6492H65.9559ZM70.167 78.5467H68.4826L66.7981 76.5969C66.5359 76.6186 66.2735 76.6405 66.0112 76.6405H65.1276V78.5467H63.6641V71.1394H66.0112C68.6068 71.1394 70.0566 72.2069 70.0566 73.9064C70.0566 75.0501 69.4078 75.8343 68.1788 76.2592L70.167 78.5467Z" fill="#2A3890"/>
<path d="M74.7812 71.1394H80.6215V72.1525H76.2447V75.1263H80.2212V76.1503H76.2447V78.5467H74.7812V71.1394Z" fill="#2A3890"/>
<path d="M85.207 71.1394H86.6705V77.5336H91.0059V78.5467H85.207V71.1394Z" fill="#2A3890"/>
<path d="M96.9215 76.2047L93.3594 71.1394H94.9748L97.101 74.1894C97.3909 74.6034 97.6672 75.2569 97.6672 75.2569C97.6672 75.2569 97.9571 74.6034 98.2333 74.1894L100.291 71.1394H101.795L98.385 76.1392V78.5467H96.9215V76.2047Z" fill="#2A3890"/>
<path d="M1.21701 84.9557C2.1915 84.9557 2.65695 84.4619 2.65695 83.7543C2.65695 83.0465 2.1915 82.5528 1.21701 82.5528H0.790359V84.9557H1.21701ZM0.441406 82.2689H1.24135C2.34171 82.2689 3.02529 82.8544 3.02529 83.7543C3.02529 84.6543 2.34665 85.2397 1.24135 85.2397H0.441406V82.2689Z" fill="#1375BC"/>
<path d="M5.07669 82.2689H4.72266V85.2397H5.07669V82.2689Z" fill="#1375BC"/>
<path d="M6.76953 83.7542C6.76953 82.8586 7.50648 82.2338 8.46639 82.2338C8.94147 82.2338 9.34379 82.3562 9.6153 82.6185L9.37776 82.8325C9.16443 82.6315 8.87353 82.5179 8.46639 82.5179C7.69066 82.5179 7.13306 83.0466 7.13306 83.7542C7.13306 84.4619 7.69547 84.9907 8.49542 84.9907C8.94629 84.9907 9.26621 84.8683 9.46991 84.7198V84.1082H8.4906V83.8285H9.79947V84.8638C9.55712 85.0781 9.11588 85.2746 8.49542 85.2746C7.5113 85.2746 6.76953 84.6498 6.76953 83.7542Z" fill="#1375BC"/>
<path d="M11.897 82.2689H11.543V85.2397H11.897V82.2689Z" fill="#1375BC"/>
<path d="M14.5059 82.5484H13.4922V82.2689H15.8686V82.5484H14.8551V85.2395H14.5059V82.5484Z" fill="#1375BC"/>
<path d="M18.8931 84.4706L18.3114 83.1511C18.2483 83.0114 18.1853 82.7974 18.1853 82.7974C18.1853 82.7974 18.1175 83.0114 18.0545 83.1511L17.4726 84.4706H18.8931ZM18.1562 82.2382H18.2144L19.6106 85.2395H19.2421L19.0192 84.7414H17.3515L17.1332 85.2395H16.7891L18.1562 82.2382Z" fill="#1375BC"/>
<path d="M21.207 82.2687H21.5562V84.9599H23.113V85.2396H21.207V82.2687Z" fill="#1375BC"/>
<path d="M27.579 84.226C28.3211 84.226 28.5975 83.8764 28.5975 83.3872C28.5975 82.8979 28.3211 82.5484 27.579 82.5484H27.2008V84.226H27.579ZM26.8516 82.2687H27.5984C28.5005 82.2687 28.9613 82.7188 28.9613 83.3872C28.9613 84.0425 28.5005 84.5012 27.5984 84.5012H27.2008V85.2396H26.8516V82.2687Z" fill="#1375BC"/>
<path d="M31.375 84.178C32.1219 84.178 32.3983 83.8328 32.3983 83.3653C32.3983 82.8979 32.1171 82.5484 31.375 82.5484H31.0016V84.178H31.375ZM32.7911 85.2396H32.3789L31.7436 84.4269C31.632 84.4445 31.5108 84.4532 31.3944 84.4532H31.0016V85.2396H30.6523V82.2687H31.3944C32.2965 82.2687 32.762 82.7231 32.762 83.3653C32.762 83.811 32.5293 84.1605 32.0734 84.3265L32.7911 85.2396Z" fill="#1375BC"/>
<path d="M34.8814 82.2689H34.5273V85.2397H34.8814V82.2689Z" fill="#1375BC"/>
<path d="M37.2943 83.1731C37.2021 83.0727 37.0664 82.898 37.0664 82.898C37.0664 82.898 37.0954 83.1076 37.0954 83.2344V85.2396H36.7656V82.2382H36.8238L38.7928 84.3353C38.885 84.4357 39.0208 84.6105 39.0208 84.6105C39.0208 84.6105 38.9966 84.4008 38.9966 84.2741V82.2688H39.3215V85.2702H39.2633L37.2943 83.1731Z" fill="#1375BC"/>
<path d="M41.916 82.5484H40.9023V82.2689H43.2788V82.5484H42.2652V85.2395H41.916V82.5484Z" fill="#1375BC"/>
<path d="M45.229 82.2689H44.875V85.2397H45.229V82.2689Z" fill="#1375BC"/>
<path d="M47.638 83.1731C47.5458 83.0727 47.4102 82.898 47.4102 82.898C47.4102 82.898 47.4392 83.1076 47.4392 83.2344V85.2396H47.1094V82.2382H47.1676L49.1366 84.3353C49.2288 84.4357 49.3646 84.6105 49.3646 84.6105C49.3646 84.6105 49.3404 84.4008 49.3404 84.2741V82.2688H49.6652V85.2702H49.607L47.638 83.1731Z" fill="#1375BC"/>
<path d="M51.3438 83.7542C51.3438 82.8586 52.0807 82.2338 53.0406 82.2338C53.5157 82.2338 53.918 82.3562 54.1895 82.6185L53.952 82.8325C53.7386 82.6315 53.4477 82.5179 53.0406 82.5179C52.2649 82.5179 51.7073 83.0466 51.7073 83.7542C51.7073 84.4619 52.2697 84.9907 53.0696 84.9907C53.5205 84.9907 53.8404 84.8683 54.0441 84.7198V84.1082H53.0648V83.8285H54.3737V84.8638C54.1313 85.0781 53.6901 85.2746 53.0696 85.2746C52.0855 85.2746 51.3438 84.6498 51.3438 83.7542Z" fill="#1375BC"/>
<path d="M57.9141 84.6716L58.2049 84.5319C58.3603 84.7808 58.5882 84.9948 59.0538 84.9948C59.4368 84.9948 59.7376 84.8027 59.7376 84.4882C59.7376 84.1866 59.529 84.0338 59.1168 83.8677L58.8549 83.7585C58.3844 83.5663 58.1275 83.361 58.1275 82.9459C58.1275 82.5178 58.5009 82.2338 58.9956 82.2338C59.4368 82.2338 59.7133 82.4174 59.8879 82.6795L59.6066 82.8368C59.4805 82.6532 59.3059 82.5134 58.9956 82.5134C58.6707 82.5134 58.4717 82.6838 58.4717 82.9372C58.4717 83.1994 58.6271 83.3173 58.9956 83.4703L59.2574 83.5794C59.8055 83.7978 60.0868 84.0425 60.0868 84.4882C60.0868 84.9775 59.6551 85.2745 59.0634 85.2745C58.4329 85.2745 58.0887 84.9861 57.9141 84.6716Z" fill="#1375BC"/>
<path d="M64.6032 83.7542C64.6032 83.0466 64.041 82.5179 63.27 82.5179C62.5041 82.5179 61.9418 83.0466 61.9418 83.7542C61.9418 84.4619 62.5041 84.9907 63.27 84.9907C64.041 84.9907 64.6032 84.4619 64.6032 83.7542ZM61.5781 83.7542C61.5781 82.8586 62.3343 82.2338 63.27 82.2338C64.2106 82.2338 64.9669 82.8586 64.9669 83.7542C64.9669 84.6498 64.2106 85.2746 63.27 85.2746C62.3343 85.2746 61.5781 84.6498 61.5781 83.7542Z" fill="#1375BC"/>
<path d="M66.6484 82.2687H66.9977V84.9599H68.5544V85.2396H66.6484V82.2687Z" fill="#1375BC"/>
<path d="M70.0234 84.226V82.2687H70.3727V84.2041C70.3727 84.7328 70.6927 84.9949 71.2068 84.9949C71.716 84.9949 72.0409 84.7328 72.0409 84.2041V82.2687H72.3902V84.226C72.3902 84.9206 71.8762 85.2745 71.2068 85.2745C70.5327 85.2745 70.0234 84.9206 70.0234 84.226Z" fill="#1375BC"/>
<path d="M74.951 82.5484H73.9375V82.2689H76.3139V82.5484H75.3003V85.2395H74.951V82.5484Z" fill="#1375BC"/>
<path d="M78.2643 82.2689H77.9102V85.2397H78.2643V82.2689Z" fill="#1375BC"/>
<path d="M82.9861 83.7542C82.9861 83.0466 82.4236 82.5179 81.6529 82.5179C80.8869 82.5179 80.3245 83.0466 80.3245 83.7542C80.3245 84.4619 80.8869 84.9907 81.6529 84.9907C82.4236 84.9907 82.9861 84.4619 82.9861 83.7542ZM79.9609 83.7542C79.9609 82.8586 80.7172 82.2338 81.6529 82.2338C82.5932 82.2338 83.3496 82.8586 83.3496 83.7542C83.3496 84.6498 82.5932 85.2746 81.6529 85.2746C80.7172 85.2746 79.9609 84.6498 79.9609 83.7542Z" fill="#1375BC"/>
<path d="M85.5638 83.1731C85.4716 83.0727 85.3359 82.898 85.3359 82.898C85.3359 82.898 85.365 83.1076 85.365 83.2344V85.2396H85.0352V82.2382H85.0935L87.0625 84.3353C87.1546 84.4357 87.2904 84.6105 87.2904 84.6105C87.2904 84.6105 87.2661 84.4008 87.2661 84.2741V82.2688H87.591V85.2702H87.5328L85.5638 83.1731Z" fill="#1375BC"/>
<path d="M89.1484 84.6716L89.4393 84.5319C89.5947 84.7808 89.8225 84.9948 90.2881 84.9948C90.6712 84.9948 90.972 84.8027 90.972 84.4882C90.972 84.1866 90.7634 84.0338 90.3512 83.8677L90.0893 83.7585C89.6187 83.5663 89.3618 83.361 89.3618 82.9459C89.3618 82.5178 89.7353 82.2338 90.2299 82.2338C90.6712 82.2338 90.9477 82.4174 91.1223 82.6795L90.841 82.8368C90.7148 82.6532 90.5402 82.5134 90.2299 82.5134C89.9051 82.5134 89.7061 82.6838 89.7061 82.9372C89.7061 83.1994 89.8615 83.3173 90.2299 83.4703L90.4918 83.5794C91.0398 83.7978 91.3212 84.0425 91.3212 84.4882C91.3212 84.9775 90.8895 85.2745 90.2978 85.2745C89.6673 85.2745 89.323 84.9861 89.1484 84.6716Z" fill="#1375BC"/>
<path d="M95.1211 82.2687H95.4703V84.9599H97.0271V85.2396H95.1211V82.2687Z" fill="#1375BC"/>
<path d="M98.4922 85.03C98.4922 84.8945 98.6184 84.7939 98.7539 84.7939C98.8947 84.7939 99.0158 84.8945 99.0158 85.03C99.0158 85.1656 98.8947 85.2708 98.7539 85.2708C98.6184 85.2708 98.4922 85.1656 98.4922 85.03Z" fill="#1375BC"/>
<path d="M100.664 82.2687H101.013V84.9599H102.57V85.2396H100.664V82.2687Z" fill="#1375BC"/>
<path d="M104.035 85.03C104.035 84.8945 104.161 84.7939 104.297 84.7939C104.438 84.7939 104.559 84.8945 104.559 85.03C104.559 85.1656 104.438 85.2708 104.297 85.2708C104.161 85.2708 104.035 85.1656 104.035 85.03Z" fill="#1375BC"/>
<path d="M106.023 83.7542C106.023 82.8586 106.78 82.2338 107.715 82.2338C108.297 82.2338 108.743 82.4305 109.024 82.8106L108.758 82.9853C108.544 82.7013 108.19 82.5179 107.715 82.5179C106.944 82.5179 106.387 83.0466 106.387 83.7542C106.387 84.4619 106.944 84.9907 107.715 84.9907C108.195 84.9907 108.564 84.8028 108.801 84.4926L109.073 84.6629C108.782 85.0474 108.307 85.2746 107.715 85.2746C106.78 85.2746 106.023 84.6498 106.023 83.7542Z" fill="#1375BC"/>
<path d="M110.477 85.03C110.477 84.8945 110.603 84.7939 110.738 84.7939C110.879 84.7939 111 84.8945 111 85.03C111 85.1656 110.879 85.2708 110.738 85.2708C110.603 85.2708 110.477 85.1656 110.477 85.03Z" fill="#1375BC"/>
<path d="M56.8633 18.9491L77.5967 3.41309L82.4332 16.7907L56.8633 18.9491Z" fill="#4DC8F4"/>
<path d="M56.8633 18.9491L74.3127 30.4904L82.4333 16.7907L90.4301 17.6164L77.5967 3.41309L93.1975 9.48221L90.4301 17.6164" fill="#A6D7D9"/>
<path d="M77.5977 3.41313L93.7214 0.017334L93.1985 9.4829L77.5977 3.41313Z" fill="#4DC8F4"/>
<path d="M93.7183 0.017334L97.1322 10.6092L93.1953 9.48225L93.7183 0.017334Z" fill="#1C93D1"/>
<path d="M90.4336 17.5492L97.137 10.6091L93.2002 9.48218L90.4336 17.5492Z" fill="#62C0DE"/>
<path d="M90.4273 17.5492L86.8694 31.1566L82.4297 16.7905L90.4273 17.5492Z" fill="#A6D7D9"/>
<path d="M74.6094 30.4904L86.875 31.1568L82.4354 16.7908L74.6094 30.4904Z" fill="#62C0DE"/>
<path d="M55.6172 39.2625L74.3176 30.4904L56.868 18.9491L55.6172 39.2625Z" fill="#4DC8F4"/>
<path d="M55.6172 39.2623L83.2266 42.8258L74.3176 30.4902L55.6172 39.2623Z" fill="#3DC6ED"/>
<path d="M62.4494 60.9299L55.125 45.3132L70.8782 53.4706L62.4494 60.9299Z" fill="#0972B7"/>
<path d="M77.2929 57.138L76.1328 48.8209L83.2246 42.8259L77.2929 57.138Z" fill="#FDB614"/>
<path d="M55.6172 39.2625L70.8806 53.4706L83.2266 42.8259L55.6172 39.2625Z" fill="#4DC8F4"/>
<path d="M62.4453 60.9299L76.1284 48.821L77.2885 57.1381L62.4453 60.9299Z" fill="#2966B1"/>
<path d="M55.6148 39.2625L55.125 45.3132L70.8782 53.4706L55.6148 39.2625Z" fill="#14A5C1"/>
<path d="M56.8633 18.9491L82.4332 16.7908L74.3127 30.4904L56.8633 18.9491Z" fill="#1285C6"/>
<path d="M77.5977 3.41309L82.4351 16.7906L90.4318 17.5493L77.5977 3.41309Z" fill="#082B2C"/>
<path d="M96.8731 25.2053L96.728 16.9902L93.6797 18.6818L96.8731 25.2053Z" fill="#62C0DE"/>
<path d="M104.629 16.5675L104.16 19.977L98.9297 20.5431L104.629 16.5675Z" fill="#C0DBF2"/>
<path d="M90.4275 17.6165L86.8704 31.2245L82.3789 16.8135L90.4275 17.6165Z" fill="#23B1E6"/>
<path d="M74.3125 30.4905L86.8727 31.2245L82.3812 16.8135L74.3125 30.4905Z" fill="#167EC0"/>
<path d="M77.2941 57.2064L76.1328 48.8893L83.2257 42.8939L77.2941 57.2064Z" fill="#3E4B9F"/>
<path d="M77.5977 3.41309L82.3825 16.8134L90.4311 17.6164L77.5977 3.41309Z" fill="#0F5DA8"/>
<path d="M52.699 18.9318L31.9656 3.39624L27.1289 16.7739L52.699 18.9318Z" fill="#4DC8F4"/>
<path d="M52.697 18.9318L35.2476 30.4733L27.1269 16.7739L19.1302 17.5993L31.9636 3.39624L16.3633 9.46536L19.1302 17.5993" fill="#A6D7D9"/>
<path d="M31.9673 3.39619L15.8438 0L16.367 9.4657L31.9673 3.39619Z" fill="#4DC8F4"/>
<path d="M15.8398 0L12.4258 10.5922L16.3632 9.46544L15.8398 0Z" fill="#1C93D1"/>
<path d="M19.129 17.5324L12.4258 10.5921L16.363 9.46533L19.129 17.5324Z" fill="#62C0DE"/>
<path d="M19.1328 17.5323L22.6909 31.1396L27.1305 16.7737L19.1328 17.5323Z" fill="#A6D7D9"/>
<path d="M34.953 30.4732L22.6875 31.1396L27.127 16.7738L34.953 30.4732Z" fill="#62C0DE"/>
<path d="M53.9543 39.2452L35.2539 30.4732L52.7033 18.9318L53.9543 39.2452Z" fill="#4DC8F4"/>
<path d="M53.9494 39.2451L26.3398 42.8088L35.249 30.4731L53.9494 39.2451Z" fill="#3DC6ED"/>
<path d="M47.1165 60.9121L54.441 45.2959L38.6875 53.4536L47.1165 60.9121Z" fill="#0972B7"/>
<path d="M32.2715 57.121L33.4316 48.8043L26.3398 42.8088L32.2715 57.121Z" fill="#FDB614"/>
<path d="M53.9494 39.2451L38.6857 53.4536L26.3398 42.8089L53.9494 39.2451Z" fill="#4DC8F4"/>
<path d="M47.1127 60.9121L33.4296 48.8044L32.2695 57.121L47.1127 60.9121Z" fill="#2966B1"/>
<path d="M53.9512 39.2451L54.441 45.2959L38.6875 53.4536L53.9512 39.2451Z" fill="#14A5C1"/>
<path d="M52.699 18.9317L27.1289 16.7738L35.2496 30.4732L52.699 18.9317Z" fill="#1285C6"/>
<path d="M31.9671 3.39624L27.1298 16.7739L19.1328 17.5324L31.9671 3.39624Z" fill="#082B2C"/>
<path d="M12.6875 25.1881L12.8326 16.9731L15.8808 18.665L12.6875 25.1881Z" fill="#62C0DE"/>
<path d="M4.93359 16.5503L5.40294 19.9596L10.6327 20.5259L4.93359 16.5503Z" fill="#C0DBF2"/>
<path d="M19.1328 17.5993L22.69 31.2073L27.1815 16.7964L19.1328 17.5993Z" fill="#23B1E6"/>
<path d="M35.2477 30.4732L22.6875 31.2074L27.1791 16.7964L35.2477 30.4732Z" fill="#167EC0"/>
<path d="M32.2715 57.1889L33.4326 48.873L26.3398 42.8771L32.2715 57.1889Z" fill="#3E4B9F"/>
<path d="M31.9662 3.39624L27.1816 16.7965L19.1328 17.5994L31.9662 3.39624Z" fill="#0F5DA8"/>
</svg>
