<svg width="32" height="32" viewBox="0 0 32 32" fill="none" xmlns="http://www.w3.org/2000/svg">
<path d="M10.1152 14.9434L18.4469 14.9479C18.8399 14.9482 19.2445 14.9285 19.6353 14.9717C19.5293 15.0215 19.4246 15.0778 19.3194 15.1301L15.242 17.4457C15.1582 17.486 15.0894 17.5124 14.9957 17.515L6.23362 17.5138C5.88062 17.5123 5.65212 17.5547 6.04867 17.2963L9.13407 15.4217C9.43482 15.2342 9.74947 14.9582 10.1152 14.9434Z" fill="white" fill-opacity="0.5"/>
<path d="M24.5383 4.1073C24.7201 4.10142 24.9295 4.09928 25.1095 4.12471C26.6646 4.34435 27.6568 6.31318 26.7053 7.64128C25.9649 8.67469 25.1654 8.50232 24.0399 8.50287L21.629 8.50332C21.3981 8.50357 21.1507 8.51909 20.922 8.49066C19.6373 8.33115 19.1146 6.74936 19.8549 5.73297C20.4346 4.93706 21.6681 4.74458 22.3969 5.47081C22.4632 5.33538 22.546 5.21696 22.6399 5.09965L22.7252 4.99799C23.2076 4.4696 23.8151 4.13725 24.5383 4.1073Z" fill="white" fill-opacity="0.5"/>
<path d="M10.1403 4.13936C10.3474 4.11835 10.6075 4.11202 10.8109 4.15491L11.0704 4.21564C11.8092 4.45127 12.4167 4.91199 12.7778 5.61057L12.7856 5.62578C12.894 5.51332 13.1391 5.42674 13.2902 5.39611L13.3122 5.39191C14.0784 5.23866 14.7701 5.81157 14.8536 6.57761C14.8785 6.80579 14.8531 6.70244 15.0819 6.79518C16.645 7.4288 16.4421 9.62794 14.8189 10.0621C14.5938 10.1223 14.3605 10.1192 14.1297 10.1195L11.3512 10.1202L7.27263 10.1208C7.10608 10.1206 6.92938 10.1323 6.76413 10.1123C5.49308 9.95847 4.74558 8.28323 5.40453 7.20618C5.85743 6.466 6.82623 6.01957 7.67888 6.27071L7.69848 6.27687C7.74348 6.2012 7.75223 6.07472 7.78368 5.98689C8.14878 4.96692 9.04338 4.22318 10.1403 4.13936Z" fill="white" fill-opacity="0.5"/>
<path d="M5.17969 18.1914L14.5774 18.1932L14.577 25.93C14.4179 25.9434 14.2499 25.9316 14.0898 25.9317L12.157 25.9326C11.9886 25.9324 11.7964 25.9507 11.6325 25.9171L11.6029 25.9106C11.5327 25.8957 11.4999 25.8813 11.4527 25.8254L11.3928 25.7522C11.2876 25.621 11.3331 25.3757 11.3328 25.2195L11.3331 24.3915L11.3308 21.3452C11.3221 21.1287 10.8568 21.1951 10.7183 21.1949L9.20309 21.195C9.01179 21.1956 8.69449 21.1534 8.58319 21.3569C8.53339 21.4479 8.56254 24.4175 8.56259 24.8022C8.56259 25.1853 8.73509 25.9143 8.16404 25.9353L5.85119 25.9332C5.55599 25.9356 5.18034 25.9274 5.18019 25.5466L5.17969 18.1914Z" fill="white" fill-opacity="0.5"/>
<path d="M21.1747 14.8421L21.1816 14.8425C21.2414 14.8397 21.2763 14.8447 21.3335 14.8644L21.3586 14.8731C21.6016 14.9536 21.8399 15.1308 22.0614 15.261L26.6962 17.989C26.7908 18.0483 26.8828 18.106 26.9599 18.1879L26.9792 18.2086C27.0775 18.3117 27.0525 18.4466 27.0527 18.5787L27.0565 25.225C27.0567 25.3391 27.077 25.5187 27.0419 25.6261L27.0323 25.6492C26.886 26.0373 26.4785 25.9298 26.1468 25.9297L22.9264 25.9278C22.8561 25.9245 22.7907 25.9176 22.7246 25.8918L22.7023 25.8825C22.5102 25.8034 22.506 25.6757 22.5025 25.5008L22.5003 21.7807C22.5 21.166 22.5926 21.1928 21.995 21.192L21.1297 21.1923L20.3611 21.1921C20.2086 21.1922 20.047 21.1814 19.8964 21.2079L19.8537 21.2969C19.8353 21.3299 19.8258 21.3459 19.8216 21.3848L19.8198 21.4028C19.805 21.5435 19.8118 21.6899 19.8115 21.8314L19.8109 25.3126C19.8108 25.4522 19.8437 25.6332 19.7609 25.7556L19.7473 25.7743C19.5971 25.9921 19.249 25.9287 19.0226 25.9283L15.2715 25.927L15.2759 18.2129C15.4407 18.1606 15.5921 18.0634 15.7413 17.9776L20.5235 15.2076C20.7407 15.0788 20.9384 14.9362 21.1747 14.8421ZM21.0589 16.8194C19.6411 17.0247 19.7352 19.0435 21.2118 19.0175C21.4241 18.9919 21.5968 18.9303 21.7716 18.8056L21.7941 18.7898C22.6307 18.1961 22.1975 16.7365 21.0589 16.8194Z" fill="white" fill-opacity="0.5"/>
</svg>
