<svg width="28" height="28" viewBox="0 0 28 28" fill="none" xmlns="http://www.w3.org/2000/svg">
<path d="M16.3009 2.59159L18.6473 7.32319C18.9673 7.98184 19.8205 8.61361 20.5405 8.73459L24.7933 9.44701C27.513 9.90405 28.153 11.8935 26.1931 13.856L22.8869 17.1896C22.3269 17.7541 22.0203 18.8429 22.1935 19.6227L23.1402 23.7493C23.8867 27.0157 22.1669 28.2793 19.3006 26.5721L15.3143 24.1929C14.5945 23.7628 13.4079 23.7628 12.6746 24.1929L8.68842 26.5721C5.83539 28.2793 4.10226 27.0023 4.84885 23.7493L5.79541 19.6227C5.96871 18.8429 5.66209 17.7541 5.10214 17.1896L1.79585 13.856C-0.150605 11.8935 0.475995 9.90405 3.19569 9.44701L7.44855 8.73459C8.15514 8.61361 9.00838 7.98184 9.32834 7.32319L11.6747 2.59159C12.9546 0.024159 15.0343 0.024159 16.3009 2.59159Z" fill="#2844F3" stroke="#2844F3" stroke-linecap="round" stroke-linejoin="round"/>
</svg>
