<svg width="30" height="31" viewBox="0 0 30 31" fill="none" xmlns="http://www.w3.org/2000/svg">
<path d="M0 30.8899L2.15243 22.8867C0.416549 19.769 -0.134958 16.131 0.599113 12.6401C1.33318 9.14924 3.30359 6.03973 6.14876 3.88219C8.99394 1.72465 12.523 0.663785 16.0884 0.894276C19.6538 1.12477 23.0164 2.63115 25.5591 5.137C28.1018 7.64285 29.6541 10.9801 29.9311 14.5363C30.2081 18.0925 29.1912 21.6292 27.0671 24.4973C24.9429 27.3655 21.854 29.3727 18.3672 30.1506C14.8803 30.9286 11.2294 30.4251 8.08433 28.7326L0 30.8899ZM8.47414 25.7377L8.97411 26.0339C11.2521 27.3819 13.9128 27.9397 16.5416 27.6204C19.1703 27.3011 21.6194 26.1227 23.5073 24.2687C25.3951 22.4147 26.6156 19.9894 26.9786 17.3706C27.3415 14.7518 26.8266 12.0867 25.514 9.79062C24.2014 7.49452 22.1648 5.6964 19.7217 4.67647C17.2786 3.65654 14.5661 3.47209 12.007 4.15187C9.44796 4.83165 7.186 6.33747 5.57365 8.43467C3.9613 10.5319 3.08913 13.1026 3.09306 15.7464C3.09092 17.9385 3.69817 20.0881 4.84721 21.9561L5.16075 22.4722L3.95742 26.9391L8.47414 25.7377Z" fill="white"/>
<path fill-rule="evenodd" clip-rule="evenodd" d="M20.6086 17.8003C20.3155 17.5643 19.9723 17.3982 19.6052 17.3146C19.2381 17.2311 18.8567 17.2322 18.4901 17.3181C17.9392 17.5465 17.5833 18.4094 17.2274 18.8409C17.1524 18.9443 17.0421 19.0169 16.9173 19.0449C16.7925 19.0729 16.6617 19.0546 16.5495 18.9932C14.5329 18.2047 12.8426 16.7587 11.7531 14.89C11.6602 14.7734 11.6162 14.6254 11.6304 14.477C11.6447 14.3287 11.716 14.1917 11.8294 14.0948C12.2263 13.7025 12.5178 13.2165 12.6768 12.682C12.7121 12.0923 12.5768 11.5049 12.287 10.9899C12.063 10.2679 11.6366 9.625 11.0582 9.13717C10.76 9.00324 10.4292 8.95833 10.1059 9.00787C9.78264 9.05741 9.48062 9.19927 9.2363 9.41636C8.81214 9.7817 8.47548 10.2374 8.25109 10.7498C8.0267 11.2623 7.92031 11.8185 7.93976 12.3774C7.94107 12.6913 7.98091 13.0038 8.0584 13.308C8.25517 14.0389 8.55778 14.7371 8.95665 15.3807C9.24443 15.8737 9.55843 16.351 9.89728 16.8105C10.9985 18.3197 12.3828 19.6012 13.9733 20.5837C14.7715 21.083 15.6245 21.4889 16.5156 21.7935C17.4412 22.2124 18.4632 22.3732 19.4731 22.2588C20.0484 22.1718 20.5936 21.945 21.0605 21.5984C21.5275 21.2517 21.9019 20.7957 22.1509 20.2707C22.2972 19.9535 22.3416 19.5988 22.278 19.2554C22.1255 18.5533 21.1848 18.1387 20.6086 17.8003Z" fill="white"/>
</svg>
